<svg width="26" height="37" viewBox="0 0 26 37" fill="none" xmlns="http://www.w3.org/2000/svg">
<path d="M13 8.325C14.2314 8.325 15.4123 8.81227 16.283 9.67963C17.1537 10.547 17.6429 11.7234 17.6429 12.95C17.6429 13.5574 17.5228 14.1588 17.2894 14.7199C17.0561 15.281 16.7141 15.7909 16.283 16.2204C15.8519 16.6498 15.34 16.9905 14.7767 17.2229C14.2134 17.4554 13.6097 17.575 13 17.575C11.7686 17.575 10.5877 17.0877 9.717 16.2204C8.8463 15.353 8.35714 14.1766 8.35714 12.95C8.35714 11.7234 8.8463 10.547 9.717 9.67963C10.5877 8.81227 11.7686 8.325 13 8.325ZM13 0C16.4478 0 19.7544 1.36437 22.1924 3.79297C24.6304 6.22156 26 9.51545 26 12.95C26 22.6625 13 37 13 37C13 37 0 22.6625 0 12.95C0 9.51545 1.36964 6.22156 3.80761 3.79297C6.24558 1.36437 9.55219 0 13 0ZM13 3.7C10.5373 3.7 8.17542 4.67455 6.43401 6.40926C4.6926 8.14397 3.71429 10.4967 3.71429 12.95C3.71429 14.8 3.71429 18.5 13 30.9135C22.2857 18.5 22.2857 14.8 22.2857 12.95C22.2857 10.4967 21.3074 8.14397 19.566 6.40926C17.8246 4.67455 15.4627 3.7 13 3.7Z" fill="#FBA902"/>
</svg>
