<svg width="29" height="29" viewBox="0 0 29 29" fill="none" xmlns="http://www.w3.org/2000/svg">
<path fill-rule="evenodd" clip-rule="evenodd" d="M24.3328 4.67655C23.0524 3.38826 21.5291 2.36681 19.8512 1.67136C18.1733 0.975903 16.3741 0.620267 14.5578 0.625048C6.94391 0.625048 0.740625 6.82255 0.740625 14.4365C0.734854 16.8608 1.37073 19.2436 2.58369 21.3427L0.625 28.5011L7.951 26.5771C9.97674 27.6806 12.2464 28.2597 14.5532 28.2617H14.559C22.174 28.2617 28.3704 22.0654 28.375 14.4457C28.375 10.7561 26.9389 7.28736 24.3328 4.67539V4.67655ZM14.5578 25.9273H14.5532C12.4969 25.9273 10.4783 25.375 8.70834 24.3282L8.28863 24.0796L3.93881 25.2185L5.09969 20.9808L4.82913 20.5472C3.67819 18.7171 3.06887 16.5984 3.07163 14.4365C3.07163 8.10945 8.22503 2.96067 14.5624 2.96067C16.0707 2.9569 17.5647 3.25235 18.9579 3.8299C20.3512 4.40745 21.6161 5.25564 22.6793 6.32536C23.7478 7.38995 24.5947 8.65568 25.1713 10.0495C25.7478 11.4432 26.0424 12.9374 26.0382 14.4457C26.0382 20.7785 20.8848 25.9273 14.5567 25.9273H14.5578ZM20.8536 17.3271C20.5102 17.156 18.8117 16.3211 18.496 16.2078C18.1803 16.0899 17.9491 16.0356 17.719 16.379C17.4878 16.7258 16.8287 17.504 16.6263 17.7341C16.4275 17.9596 16.224 17.9919 15.8806 17.8196C15.5337 17.6485 14.4225 17.282 13.1032 16.1038C12.0777 15.1903 11.3827 14.0572 11.1839 13.7138C10.9804 13.3669 11.1607 13.1819 11.333 13.0085C11.4903 12.8559 11.6799 12.6073 11.8522 12.4038C12.0233 12.206 12.0834 12.0615 12.1991 11.8303C12.3124 11.6002 12.2546 11.3967 12.1678 11.2255C12.0823 11.0544 11.392 9.35127 11.1029 8.65983C10.822 7.98689 10.5375 8.08171 10.3259 8.06899C10.1271 8.05974 9.89697 8.05974 9.66687 8.05974C9.43563 8.05974 9.061 8.1453 8.74419 8.49333C8.42853 8.83674 7.53822 9.67271 7.53822 11.3701C7.53822 13.0686 8.77541 14.7116 8.94884 14.9429C9.11997 15.1684 11.3827 18.6545 14.8457 20.1506C15.669 20.5068 16.3095 20.7195 16.8113 20.8779C17.6381 21.1392 18.3919 21.1034 18.9886 21.0167C19.6523 20.9184 21.0293 20.1819 21.3184 19.3736C21.604 18.5701 21.604 17.8786 21.5173 17.7341C21.4317 17.5896 21.2016 17.5028 20.8536 17.3271Z" fill="#FCF8F1"/>
</svg>
