<svg width="28" height="28" viewBox="0 0 28 28" fill="none" xmlns="http://www.w3.org/2000/svg">
<path opacity="0.7" d="M10.55 4.375C7.16036 4.375 4.375 7.15655 4.375 10.55V19.2C4.375 22.5896 7.15655 25.375 10.55 25.375H19.2C22.5896 25.375 25.375 22.5935 25.375 19.2V10.5509C25.375 7.16036 22.5935 4.375 19.2 4.375H10.55ZM10.55 6.28409H19.2C19.7605 6.28334 20.3155 6.39316 20.8334 6.60728C21.3513 6.82139 21.8219 7.13558 22.2181 7.53185C22.6144 7.92812 22.9286 8.39869 23.1427 8.91659C23.3568 9.43449 23.4667 9.98954 23.4659 10.55V19.2C23.4667 19.7605 23.3568 20.3155 23.1427 20.8334C22.9286 21.3513 22.6144 21.8219 22.2181 22.2181C21.8219 22.6144 21.3513 22.9286 20.8334 23.1427C20.3155 23.3568 19.7605 23.4667 19.2 23.4659H10.5509C9.99042 23.4668 9.43526 23.3571 8.91725 23.143C8.39924 22.9289 7.92856 22.6148 7.53219 22.2185C7.13582 21.8222 6.82154 21.3516 6.60737 20.8336C6.39319 20.3157 6.28334 19.7605 6.28409 19.2V10.5509C6.28321 9.99042 6.39294 9.43526 6.607 8.91725C6.82106 8.39924 7.13523 7.92856 7.53151 7.53219C7.9278 7.13582 8.39841 6.82154 8.91637 6.60737C9.43433 6.39319 9.98946 6.28334 10.55 6.28409V6.28409ZM20.5125 8.37264C20.3988 8.37213 20.2861 8.39416 20.181 8.43744C20.0758 8.48072 19.9803 8.5444 19.8999 8.62481C19.8195 8.70522 19.7558 8.80075 19.7125 8.90591C19.6692 9.01106 19.6472 9.12374 19.6477 9.23745C19.6477 9.71855 20.0315 10.1023 20.5125 10.1023C20.6263 10.1029 20.7391 10.081 20.8444 10.0377C20.9497 9.99452 21.0453 9.93086 21.1258 9.85044C21.2063 9.77002 21.2701 9.67444 21.3134 9.56923C21.3568 9.46401 21.3788 9.35125 21.3783 9.23745C21.3788 9.12366 21.3568 9.0109 21.3134 8.90568C21.2701 8.80047 21.2063 8.70489 21.1258 8.62447C21.0453 8.54405 20.9497 8.48039 20.8444 8.43716C20.7391 8.39394 20.6263 8.372 20.5125 8.37264V8.37264ZM14.875 9.14773C11.725 9.14773 9.14773 11.725 9.14773 14.875C9.14773 18.025 11.725 20.6023 14.875 20.6023C18.025 20.6023 20.6023 18.025 20.6023 14.875C20.6023 11.725 18.025 9.14773 14.875 9.14773ZM14.875 11.0568C16.997 11.0568 18.6932 12.753 18.6932 14.875C18.6932 16.997 16.997 18.6932 14.875 18.6932C12.753 18.6932 11.0568 16.997 11.0568 14.875C11.0568 12.753 12.753 11.0568 14.875 11.0568Z" fill="#351C0E"/>
</svg>
