<svg width="28" height="28" viewBox="0 0 28 28" fill="none" xmlns="http://www.w3.org/2000/svg">
<path opacity="0.7" d="M10.2715 4.375C9.23929 4.37902 8.25055 4.79083 7.52069 5.52069C6.79083 6.25055 6.37902 7.23929 6.375 8.27145V21.4785C6.37902 22.5107 6.79083 23.4995 7.52069 24.2293C8.25055 24.9592 9.23929 25.371 10.2715 25.375H23.4785C24.5107 25.371 25.4995 24.9592 26.2293 24.2293C26.9592 23.4995 27.371 22.5107 27.375 21.4785V8.27145C27.371 7.23929 26.9592 6.25055 26.2293 5.52069C25.4995 4.79083 24.5107 4.37902 23.4785 4.375H10.2715ZM10.2715 6.28409H23.4785C24.5858 6.28409 25.4659 7.16418 25.4659 8.27145V21.4785C25.4659 22.5858 24.5858 23.4659 23.4785 23.4659H10.2715C10.01 23.4676 9.75084 23.4173 9.50898 23.318C9.26712 23.2187 9.04738 23.0724 8.8625 22.8875C8.67763 22.7026 8.5313 22.4829 8.43201 22.241C8.33272 21.9992 8.28244 21.74 8.28409 21.4785V8.27145C8.28409 7.16418 9.16418 6.28409 10.2715 6.28409ZM16.6068 11.2764C15.9052 11.2697 15.3086 11.2764 14.9735 11.4405C14.7492 11.5494 14.5784 11.7947 14.6824 11.8061C14.8132 11.8252 15.1072 11.8882 15.2647 12.1011C15.4651 12.3731 15.4585 12.9888 15.4585 12.9888C15.4585 12.9888 15.5701 14.6812 15.1855 14.8941C14.921 15.0392 14.5593 14.7442 13.7765 13.3983C13.3775 12.7053 13.0759 11.9407 13.0759 11.9407C13.0759 11.9407 13.0186 11.7985 12.9155 11.724C12.7886 11.6315 12.613 11.6009 12.613 11.6009L10.7449 11.6124C10.7449 11.6124 10.4652 11.6238 10.365 11.7431C10.2715 11.8548 10.3574 12.0744 10.3574 12.0744C10.3574 12.0744 11.8188 15.4935 13.474 17.2165C14.9917 18.7982 16.7146 18.6932 16.7146 18.6932H17.4974C17.4974 18.6932 17.7322 18.6674 17.8515 18.5405C17.9641 18.4211 17.9603 18.1968 17.9603 18.1968C17.9603 18.1968 17.945 17.1497 18.43 16.9931C18.911 16.8433 19.522 18.0069 20.1749 18.4545C20.6712 18.7934 21.0473 18.719 21.0473 18.719L22.7932 18.6932C22.7932 18.6932 23.7029 18.6369 23.2705 17.9171C23.237 17.8618 23.0204 17.3883 21.977 16.4185C20.8803 15.4048 21.0263 15.569 22.3455 13.8126C23.1473 12.7425 23.468 12.0896 23.3669 11.8061C23.2714 11.5417 22.6815 11.6124 22.6815 11.6124L20.7161 11.6238C20.7161 11.6238 20.571 11.6047 20.4631 11.6687C20.389 11.7238 20.3299 11.7966 20.2913 11.8806C20.2913 11.8806 19.9782 12.7082 19.564 13.4136C18.6915 14.897 18.3374 14.979 18.1961 14.8865C17.8639 14.6698 17.946 14.0207 17.946 13.5625C17.946 12.1192 18.1655 11.5226 17.5212 11.367C17.3084 11.3145 17.1518 11.2811 16.6077 11.2764H16.6068Z" fill="#351C0E"/>
</svg>
