<svg width="28" height="28" viewBox="0 0 28 28" fill="none" xmlns="http://www.w3.org/2000/svg">
<path opacity="0.7" fill-rule="evenodd" clip-rule="evenodd" d="M21.441 6.56604C20.4721 5.59112 19.3193 4.81813 18.0496 4.29184C16.7798 3.76555 15.4183 3.49642 14.0437 3.50004C8.28187 3.50004 3.5875 8.19004 3.5875 13.9519C3.58313 15.7866 4.06434 17.5897 4.98225 19.1783L3.5 24.5954L9.044 23.1394C10.577 23.9745 12.2946 24.4128 14.0402 24.4143H14.0446C19.8074 24.4143 24.4965 19.7252 24.5 13.9589C24.5 11.1668 23.4132 8.54179 21.441 6.56516V6.56604ZM14.0437 22.6477H14.0402C12.4841 22.6477 10.9565 22.2297 9.61713 21.4375L9.2995 21.2494L6.00775 22.1113L6.88625 18.9044L6.6815 18.5763C5.81052 17.1913 5.34941 15.588 5.3515 13.9519C5.3515 9.16391 9.25138 5.26754 14.0473 5.26754C15.1886 5.26468 16.3192 5.48826 17.3736 5.92533C18.4279 6.3624 19.3851 7.00427 20.1897 7.81379C20.9983 8.61942 21.6393 9.57727 22.0755 10.632C22.5118 11.6868 22.7348 12.8175 22.7316 13.9589C22.7316 18.7513 18.8317 22.6477 14.0429 22.6477H14.0437ZM18.8081 16.1394C18.5483 16.0099 17.2629 15.3782 17.024 15.2924C16.7851 15.2032 16.6101 15.162 16.436 15.4219C16.261 15.6844 15.7623 16.2733 15.6091 16.4474C15.4586 16.618 15.3046 16.6425 15.0448 16.5122C14.7823 16.3827 13.9414 16.1053 12.943 15.2137C12.1669 14.5224 11.641 13.6649 11.4905 13.405C11.3365 13.1425 11.473 13.0025 11.6034 12.8713C11.7224 12.7558 11.8659 12.5677 11.9963 12.4137C12.1257 12.264 12.1713 12.1547 12.2587 11.9797C12.3445 11.8055 12.3007 11.6515 12.2351 11.522C12.1704 11.3925 11.648 10.1037 11.4293 9.58041C11.2166 9.07116 11.0014 9.14291 10.8413 9.13329C10.6908 9.12629 10.5166 9.12629 10.3425 9.12629C10.1675 9.12629 9.884 9.19104 9.64425 9.45441C9.40538 9.71429 8.73163 10.3469 8.73163 11.6314C8.73163 12.9168 9.66788 14.1602 9.79913 14.3352C9.92863 14.5058 11.641 17.1439 14.2616 18.2762C14.8846 18.5457 15.3694 18.7067 15.7491 18.8265C16.3748 19.0243 16.9452 18.9972 17.3967 18.9315C17.899 18.8572 18.9411 18.2998 19.1599 17.6882C19.376 17.08 19.376 16.5568 19.3104 16.4474C19.2456 16.338 19.0715 16.2724 18.8081 16.1394Z" fill="#351C0E"/>
</svg>
