<svg width="22" height="22" viewBox="0 0 22 22" fill="none" xmlns="http://www.w3.org/2000/svg">
<path opacity="0.7" d="M4.27145 0.375C3.23929 0.379022 2.25055 0.790832 1.52069 1.52069C0.790832 2.25055 0.379022 3.23929 0.375 4.27145V17.4785C0.379022 18.5107 0.790832 19.4995 1.52069 20.2293C2.25055 20.9592 3.23929 21.371 4.27145 21.375H17.4785C18.5107 21.371 19.4995 20.9592 20.2293 20.2293C20.9592 19.4995 21.371 18.5107 21.375 17.4785V4.27145C21.371 3.23929 20.9592 2.25055 20.2293 1.52069C19.4995 0.790832 18.5107 0.379022 17.4785 0.375H4.27145ZM4.27145 2.28409H17.4785C18.5858 2.28409 19.4659 3.16418 19.4659 4.27145V17.4785C19.4659 18.5858 18.5858 19.4659 17.4785 19.4659H4.27145C4.01001 19.4676 3.75084 19.4173 3.50898 19.318C3.26712 19.2187 3.04738 19.0724 2.8625 18.8875C2.67763 18.7026 2.5313 18.4829 2.43201 18.241C2.33272 17.9992 2.28244 17.74 2.28409 17.4785V4.27145C2.28409 3.16418 3.16418 2.28409 4.27145 2.28409ZM10.6068 7.27636C9.90518 7.26968 9.30859 7.27636 8.97355 7.44055C8.74923 7.54936 8.57836 7.79468 8.68241 7.80614C8.81318 7.82523 9.10718 7.88823 9.26468 8.10109C9.46514 8.37314 9.45845 8.98882 9.45845 8.98882C9.45845 8.98882 9.57014 10.6812 9.18545 10.8941C8.92105 11.0392 8.55927 10.7442 7.77655 9.39832C7.37754 8.70532 7.07591 7.94073 7.07591 7.94073C7.07591 7.94073 7.01864 7.7985 6.91555 7.72405C6.78859 7.63145 6.61295 7.60091 6.61295 7.60091L4.74491 7.61236C4.74491 7.61236 4.46523 7.62382 4.365 7.74314C4.27145 7.85482 4.35736 8.07436 4.35736 8.07436C4.35736 8.07436 5.81877 11.4935 7.47395 13.2165C8.99168 14.7982 10.7146 14.6932 10.7146 14.6932H11.4974C11.4974 14.6932 11.7322 14.6674 11.8515 14.5405C11.9641 14.4211 11.9603 14.1968 11.9603 14.1968C11.9603 14.1968 11.945 13.1497 12.43 12.9931C12.911 12.8433 13.522 14.0069 14.1749 14.4545C14.6712 14.7934 15.0473 14.719 15.0473 14.719L16.7932 14.6932C16.7932 14.6932 17.7029 14.6369 17.2705 13.9171C17.237 13.8618 17.0204 13.3883 15.977 12.4185C14.8803 11.4048 15.0263 11.569 16.3455 9.81259C17.1473 8.74255 17.468 8.08964 17.3669 7.80614C17.2714 7.54173 16.6815 7.61236 16.6815 7.61236L14.7161 7.62382C14.7161 7.62382 14.571 7.60473 14.4631 7.66868C14.389 7.72376 14.3299 7.79664 14.2913 7.88059C14.2913 7.88059 13.9782 8.70818 13.564 9.41359C12.6915 10.897 12.3374 10.979 12.1961 10.8865C11.8639 10.6698 11.946 10.0207 11.946 9.5625C11.946 8.11923 12.1655 7.52264 11.5212 7.36704C11.3084 7.31455 11.1518 7.28114 10.6077 7.27636H10.6068Z" fill="#493326"/>
</svg>
