<svg width="22" height="21" viewBox="0 0 22 21" fill="none" xmlns="http://www.w3.org/2000/svg">
<path d="M2.53946 0C1.49519 0 0.630371 0.864818 0.630371 1.90909V19.0909C0.630371 20.1352 1.49519 21 2.53946 21H19.7213C20.7656 21 21.6304 20.1352 21.6304 19.0909V1.90909C21.6304 0.864818 20.7656 0 19.7213 0H2.53946ZM2.53946 1.90909H19.7213V19.0909H14.7691V12.6477H17.2452L17.6031 9.78409H14.7701V7.93418C14.7701 7.09991 14.9743 6.53291 16.1713 6.53291H17.7225V3.9375C17.4581 3.90409 16.5407 3.84777 15.486 3.84777C13.2857 3.84777 11.7871 5.17173 11.7871 7.63636V9.78409H9.28142V12.6477H11.7861V19.0909H2.53946V1.90909Z" fill="#fba902"/>
</svg>
