<svg width="28" height="28" viewBox="0 0 28 28" fill="none" xmlns="http://www.w3.org/2000/svg">
<path d="M8.33625 0.25C3.8975 0.25 0.25 3.8925 0.25 8.33625V19.6637C0.25 24.1025 3.8925 27.75 8.33625 27.75H19.6637C24.1025 27.75 27.75 24.1075 27.75 19.6637V8.3375C27.75 3.8975 24.1075 0.25 19.6637 0.25H8.33625ZM8.33625 2.75H19.6637C20.3976 2.74901 21.1245 2.89283 21.8027 3.17322C22.4809 3.4536 23.0971 3.86505 23.616 4.38397C24.135 4.9029 24.5464 5.51912 24.8268 6.19732C25.1072 6.87552 25.251 7.60238 25.25 8.33625V19.6637C25.251 20.3976 25.1072 21.1245 24.8268 21.8027C24.5464 22.4809 24.135 23.0971 23.616 23.616C23.0971 24.135 22.4809 24.5464 21.8027 24.8268C21.1245 25.1072 20.3976 25.251 19.6637 25.25H8.3375C7.60352 25.2512 6.87653 25.1075 6.19818 24.8271C5.51984 24.5468 4.90347 24.1354 4.38441 23.6165C3.86535 23.0975 3.4538 22.4813 3.17334 21.803C2.89287 21.1247 2.74901 20.3977 2.75 19.6637V8.3375C2.74885 7.60352 2.89255 6.87653 3.17286 6.19818C3.45317 5.51984 3.86459 4.90347 4.38353 4.38441C4.90247 3.86535 5.51874 3.4538 6.19703 3.17334C6.87531 2.89287 7.60227 2.74901 8.33625 2.75ZM21.3825 5.485C21.2336 5.48434 21.086 5.51318 20.9483 5.56986C20.8106 5.62654 20.6855 5.70993 20.5802 5.81523C20.4749 5.92052 20.3915 6.04563 20.3349 6.18333C20.2782 6.32103 20.2493 6.46859 20.25 6.6175C20.25 7.2475 20.7525 7.75 21.3825 7.75C21.5315 7.75083 21.6792 7.72211 21.8171 7.6655C21.9549 7.6089 22.0802 7.52553 22.1856 7.42022C22.291 7.31491 22.3745 7.18974 22.4313 7.05196C22.488 6.91418 22.5169 6.76651 22.5163 6.6175C22.5169 6.46849 22.488 6.32082 22.4313 6.18304C22.3745 6.04526 22.291 5.92009 22.1856 5.81478C22.0802 5.70947 21.9549 5.6261 21.8171 5.5695C21.6792 5.51289 21.5315 5.48417 21.3825 5.485ZM14 6.5C9.875 6.5 6.5 9.875 6.5 14C6.5 18.125 9.875 21.5 14 21.5C18.125 21.5 21.5 18.125 21.5 14C21.5 9.875 18.125 6.5 14 6.5ZM14 9C16.7787 9 19 11.2212 19 14C19 16.7787 16.7787 19 14 19C11.2212 19 9 16.7787 9 14C9 11.2212 11.2212 9 14 9Z" fill="#fba902"/>
</svg>
