<svg width="22" height="22" viewBox="0 0 22 22" fill="none" xmlns="http://www.w3.org/2000/svg">
<path opacity="1" d="M6.54995 0.375C3.16036 0.375 0.375 3.15655 0.375 6.54995V15.2C0.375 18.5896 3.15655 21.375 6.54995 21.375H15.2C18.5896 21.375 21.375 18.5935 21.375 15.2V6.55091C21.375 3.16036 18.5935 0.375 15.2 0.375H6.54995ZM6.54995 2.28409H15.2C15.7605 2.28334 16.3155 2.39316 16.8334 2.60728C17.3513 2.82139 17.8219 3.13558 18.2181 3.53185C18.6144 3.92812 18.9286 4.39869 19.1427 4.91659C19.3568 5.43449 19.4667 5.98954 19.4659 6.54995V15.2C19.4667 15.7605 19.3568 16.3155 19.1427 16.8334C18.9286 17.3513 18.6144 17.8219 18.2181 18.2181C17.8219 18.6144 17.3513 18.9286 16.8334 19.1427C16.3155 19.3568 15.7605 19.4667 15.2 19.4659H6.55091C5.99042 19.4668 5.43526 19.3571 4.91725 19.143C4.39924 18.9289 3.92856 18.6148 3.53219 18.2185C3.13582 17.8222 2.82154 17.3516 2.60737 16.8336C2.39319 16.3157 2.28334 15.7605 2.28409 15.2V6.55091C2.28321 5.99042 2.39294 5.43526 2.607 4.91725C2.82106 4.39924 3.13523 3.92856 3.53151 3.53219C3.9278 3.13582 4.39841 2.82154 4.91637 2.60737C5.43433 2.39319 5.98946 2.28334 6.54995 2.28409ZM16.5125 4.37264C16.3988 4.37213 16.2861 4.39416 16.181 4.43744C16.0758 4.48072 15.9803 4.5444 15.8999 4.62481C15.8195 4.70522 15.7558 4.80075 15.7125 4.90591C15.6692 5.01106 15.6472 5.12374 15.6477 5.23745C15.6477 5.71855 16.0315 6.10227 16.5125 6.10227C16.6263 6.1029 16.7391 6.08097 16.8444 6.03775C16.9497 5.99452 17.0453 5.93086 17.1258 5.85044C17.2063 5.77002 17.2701 5.67444 17.3134 5.56923C17.3568 5.46401 17.3788 5.35125 17.3783 5.23745C17.3788 5.12366 17.3568 5.0109 17.3134 4.90568C17.2701 4.80047 17.2063 4.70489 17.1258 4.62447C17.0453 4.54405 16.9497 4.48039 16.8444 4.43716C16.7391 4.39394 16.6263 4.372 16.5125 4.37264ZM10.875 5.14773C7.725 5.14773 5.14773 7.725 5.14773 10.875C5.14773 14.025 7.725 16.6023 10.875 16.6023C14.025 16.6023 16.6023 14.025 16.6023 10.875C16.6023 7.725 14.025 5.14773 10.875 5.14773ZM10.875 7.05682C12.997 7.05682 14.6932 8.75305 14.6932 10.875C14.6932 12.997 12.997 14.6932 10.875 14.6932C8.75305 14.6932 7.05682 12.997 7.05682 10.875C7.05682 8.75305 8.75305 7.05682 10.875 7.05682Z" fill="#493326"/>
</svg>
