<svg width="22" height="22" viewBox="0 0 22 22" fill="none" xmlns="http://www.w3.org/2000/svg">
<path opacity="1" fill-rule="evenodd" clip-rule="evenodd" d="M18.441 3.56604C17.4721 2.59112 16.3193 1.81813 15.0496 1.29184C13.7798 0.765549 12.4183 0.496419 11.0437 0.500036C5.28187 0.500036 0.5875 5.19004 0.5875 10.9519C0.583133 12.7866 1.06434 14.5897 1.98225 16.1783L0.5 21.5954L6.044 20.1394C7.57699 20.9745 9.29456 21.4128 11.0402 21.4143H11.0446C16.8074 21.4143 21.4965 16.7252 21.5 10.9589C21.5 8.16679 20.4132 5.54179 18.441 3.56516V3.56604ZM11.0437 19.6477H11.0402C9.48411 19.6477 7.95653 19.2297 6.61713 18.4375L6.2995 18.2494L3.00775 19.1113L3.88625 15.9044L3.6815 15.5763C2.81052 14.1913 2.34941 12.588 2.3515 10.9519C2.3515 6.16391 6.25138 2.26754 11.0473 2.26754C12.1886 2.26468 13.3192 2.48826 14.3736 2.92533C15.4279 3.3624 16.3851 4.00427 17.1897 4.81379C17.9983 5.61942 18.6393 6.57727 19.0755 7.63202C19.5118 8.68676 19.7348 9.8175 19.7316 10.9589C19.7316 15.7513 15.8317 19.6477 11.0429 19.6477H11.0437ZM15.8081 13.1394C15.5483 13.0099 14.2629 12.3782 14.024 12.2924C13.7851 12.2032 13.6101 12.162 13.436 12.4219C13.261 12.6844 12.7623 13.2733 12.6091 13.4474C12.4586 13.618 12.3046 13.6425 12.0448 13.5122C11.7823 13.3827 10.9414 13.1053 9.943 12.2137C9.16687 11.5224 8.641 10.6649 8.4905 10.405C8.3365 10.1425 8.473 10.0025 8.60337 9.87129C8.72237 9.75579 8.86588 9.56766 8.99625 9.41366C9.12575 9.26404 9.17125 9.15466 9.25875 8.97966C9.3445 8.80554 9.30075 8.65154 9.23512 8.52204C9.17037 8.39254 8.648 7.10366 8.42925 6.58041C8.21663 6.07116 8.00138 6.14291 7.84125 6.13329C7.69075 6.12629 7.51662 6.12629 7.3425 6.12629C7.1675 6.12629 6.884 6.19104 6.64425 6.45441C6.40538 6.71429 5.73163 7.34691 5.73163 8.63141C5.73163 9.91679 6.66788 11.1602 6.79913 11.3352C6.92863 11.5058 8.641 14.1439 11.2616 15.2762C11.8846 15.5457 12.3694 15.7067 12.7491 15.8265C13.3748 16.0243 13.9452 15.9972 14.3967 15.9315C14.899 15.8572 15.9411 15.2998 16.1599 14.6882C16.376 14.08 16.376 13.5568 16.3104 13.4474C16.2456 13.338 16.0715 13.2724 15.8081 13.1394Z" fill="#493326"/>
</svg>
