<svg width="41" height="22" viewBox="0 0 41 22" fill="none" xmlns="http://www.w3.org/2000/svg">
<path opacity="0.7" d="M5.08498 16.6056C4.19632 16.6056 3.36498 16.3691 2.59098 15.8961C1.81698 15.4088 1.20782 14.814 0.763484 14.1116V16.3906H0.0754844V0.695625H0.806484V7.74762C1.36548 6.95929 2.01048 6.31429 2.74148 5.81262C3.47248 5.29662 4.31815 5.03863 5.27848 5.03863C6.09548 5.03863 6.81932 5.21062 7.44998 5.55462C8.09498 5.88429 8.63248 6.32862 9.06248 6.88762C9.50682 7.44662 9.84365 8.07012 10.073 8.75812C10.3167 9.44612 10.4385 10.1413 10.4385 10.8436C10.4385 11.6033 10.3023 12.3343 10.03 13.0366C9.75765 13.7246 9.37782 14.341 8.89048 14.8856C8.40315 15.416 7.82982 15.8388 7.17048 16.1541C6.52548 16.4551 5.83032 16.6056 5.08498 16.6056ZM4.97748 15.9176C5.66548 15.9176 6.29615 15.7743 6.86948 15.4876C7.44282 15.201 7.93732 14.8211 8.35298 14.3481C8.78298 13.8608 9.11265 13.3161 9.34198 12.7141C9.58565 12.0978 9.70749 11.4743 9.70749 10.8436C9.70749 9.95496 9.51399 9.12362 9.12699 8.34962C8.73998 7.57562 8.20248 6.94496 7.51448 6.45762C6.84082 5.97029 6.05965 5.72662 5.17098 5.72662C4.49732 5.72662 3.88098 5.86996 3.32198 6.15662C2.76298 6.44329 2.26848 6.83029 1.83848 7.31762C1.42282 7.79062 1.07882 8.29946 0.806484 8.84412V12.7356C0.849485 13.1656 1.00715 13.5741 1.27948 13.9611C1.56615 14.3481 1.91732 14.6921 2.33298 14.9931C2.74865 15.2798 3.18582 15.5091 3.64448 15.6811C4.11748 15.8388 4.56182 15.9176 4.97748 15.9176ZM13.2426 0.695625H13.9951V14.4771C13.9951 14.9358 14.1097 15.2798 14.3391 15.5091C14.5827 15.7241 14.8981 15.8316 15.2851 15.8316C15.4857 15.8316 15.7007 15.8101 15.9301 15.7671C16.1594 15.7241 16.3672 15.674 16.5536 15.6166L16.7256 16.2186C16.5106 16.2903 16.2382 16.3548 15.9086 16.4121C15.5789 16.4695 15.3066 16.4981 15.0916 16.4981C14.5326 16.4981 14.0811 16.3261 13.7371 15.9821C13.4074 15.6381 13.2426 15.1866 13.2426 14.6276V0.695625ZM23.0476 16.6056C22.0442 16.6056 21.1341 16.3405 20.3171 15.8101C19.5001 15.2798 18.8551 14.5775 18.3821 13.7031C17.9091 12.8288 17.6726 11.8756 17.6726 10.8436C17.6726 10.0553 17.8087 9.30996 18.0811 8.60762C18.3677 7.90529 18.7547 7.28896 19.2421 6.75862C19.7437 6.22829 20.3171 5.81262 20.9621 5.51162C21.6071 5.19629 22.3022 5.03863 23.0476 5.03863C23.7929 5.03863 24.4881 5.19629 25.1331 5.51162C25.7924 5.81262 26.3657 6.22829 26.8531 6.75862C27.3547 7.28896 27.7417 7.90529 28.0141 8.60762C28.3007 9.30996 28.4441 10.0553 28.4441 10.8436C28.4441 11.6176 28.3007 12.3558 28.0141 13.0581C27.7417 13.7461 27.3619 14.3553 26.8746 14.8856C26.3872 15.416 25.8139 15.8388 25.1546 16.1541C24.5096 16.4551 23.8072 16.6056 23.0476 16.6056ZM18.4036 10.8651C18.4036 11.7968 18.6114 12.6496 19.0271 13.4236C19.4571 14.1833 20.0161 14.7925 20.7041 15.2511C21.4064 15.6955 22.1804 15.9176 23.0261 15.9176C23.8861 15.9176 24.6672 15.6883 25.3696 15.2296C26.0719 14.771 26.6309 14.1546 27.0466 13.3806C27.4766 12.5923 27.6916 11.7395 27.6916 10.8221C27.6916 9.89046 27.4766 9.04479 27.0466 8.28512C26.6309 7.51112 26.0719 6.89479 25.3696 6.43612C24.6672 5.96312 23.8932 5.72662 23.0476 5.72662C22.2162 5.72662 21.4422 5.96312 20.7256 6.43612C20.0232 6.89479 19.4571 7.51829 19.0271 8.30662C18.6114 9.08062 18.4036 9.93346 18.4036 10.8651ZM35.6652 16.5841C34.8912 16.5841 34.1817 16.4265 33.5367 16.1111C32.8917 15.7815 32.3255 15.3443 31.8382 14.7996C31.3652 14.2406 30.9925 13.6243 30.7202 12.9506C30.4622 12.2626 30.3332 11.5603 30.3332 10.8436C30.3332 10.084 30.455 9.36012 30.6987 8.67212C30.9567 7.96979 31.315 7.34629 31.7737 6.80162C32.2467 6.25696 32.7985 5.82696 33.4292 5.51162C34.0599 5.19629 34.7622 5.03863 35.5362 5.03863C36.5252 5.03863 37.3852 5.30379 38.1162 5.83412C38.8472 6.36446 39.4779 7.00229 40.0082 7.74762V5.21062H40.6962V16.7346C40.6962 17.738 40.4525 18.5693 39.9652 19.2286C39.4922 19.888 38.8687 20.3753 38.0947 20.6906C37.3207 21.0203 36.4894 21.1851 35.6007 21.1851C34.2964 21.1851 33.2644 20.9415 32.5047 20.4541C31.7594 19.9811 31.1645 19.3505 30.7202 18.5621L31.2792 18.2611C31.7235 19.0638 32.3327 19.6443 33.1067 20.0026C33.895 20.361 34.7264 20.5401 35.6007 20.5401C36.4034 20.5401 37.1344 20.3968 37.7937 20.1101C38.453 19.8235 38.9762 19.4006 39.3632 18.8416C39.7645 18.2826 39.9652 17.5803 39.9652 16.7346V14.1116C39.5065 14.8426 38.883 15.4375 38.0947 15.8961C37.3207 16.3548 36.5109 16.5841 35.6652 16.5841ZM35.7942 15.9176C36.4679 15.9176 37.1129 15.76 37.7292 15.4446C38.3455 15.115 38.8544 14.7065 39.2557 14.2191C39.6714 13.7175 39.9079 13.2086 39.9652 12.6926V8.84412C39.7359 8.24212 39.3919 7.70462 38.9332 7.23162C38.4889 6.75862 37.9729 6.39312 37.3852 6.13512C36.8119 5.86279 36.217 5.72662 35.6007 5.72662C34.884 5.72662 34.2462 5.87712 33.6872 6.17812C33.1282 6.47912 32.6552 6.88046 32.2682 7.38212C31.8812 7.86946 31.5874 8.41412 31.3867 9.01612C31.186 9.61812 31.0857 10.2273 31.0857 10.8436C31.0857 11.7323 31.2935 12.5636 31.7092 13.3376C32.1249 14.1116 32.691 14.7351 33.4077 15.2081C34.1244 15.6811 34.9199 15.9176 35.7942 15.9176Z" fill="#351C0E"/>
</svg>
