<svg width="50" height="46" fill="none" xmlns="http://www.w3.org/2000/svg"><g clip-path="url(#clip0)"><path d="M47.5 7.576H36.667V4.209C36.664 1.885 34.8.003 32.5 0h-15c-2.3.003-4.164 1.885-4.167 4.209v3.367H2.5C1.12 7.576 0 8.706 0 10.1v18.737a2.535 2.535 0 001.667 2.377v11.714c0 1.395 1.119 2.526 2.5 2.526h41.666c1.38 0 2.5-1.131 2.5-2.526V31.215A2.536 2.536 0 0050 28.838V10.101c0-1.395-1.12-2.525-2.5-2.525zM15 4.209c0-1.395 1.12-2.525 2.5-2.525h15c1.38 0 2.5 1.13 2.5 2.525v3.367h-1.667V4.209a.838.838 0 00-.833-.842h-15a.838.838 0 00-.833.842v3.367H15V4.209zm16.667 3.367H18.333V5.05h13.334v2.525zm15 35.353a.838.838 0 01-.834.842H4.167a.838.838 0 01-.834-.842V31.504l18.334 2.554v2.137c0 1.395 1.12 2.526 2.5 2.526h1.666c1.38 0 2.5-1.131 2.5-2.526v-2.137l18.334-2.554v11.425zm-20-6.734a.838.838 0 01-.834.842h-1.666a.838.838 0 01-.834-.842v-5.05c0-.465.373-.842.834-.842h1.666c.46 0 .834.377.834.842v5.05zm21.666-7.357c0 .42-.305.776-.716.834l-.231.033-19.053 2.654v-1.214c0-1.395-1.12-2.526-2.5-2.526h-1.666c-1.38 0-2.5 1.131-2.5 2.526v1.213L2.384 29.674a.84.84 0 01-.717-.835V10.101c0-.465.373-.842.833-.842h45c.46 0 .833.377.833.842v18.737z" fill="#FBA902"/></g><defs><clipPath id="clip0"><path fill="#fff" d="M0 0h50v45.455H0z"/></clipPath></defs></svg>