<svg width="737" height="681" fill="none" xmlns="http://www.w3.org/2000/svg"><path opacity=".5" d="M257.538 532.932C115.304 451.23 49.506 298.813 110.574 192.499c61.069-106.314 225.879-126.267 368.113-44.565 142.235 81.702 208.033 234.119 146.964 340.433-61.069 106.314-225.878 126.266-368.113 44.565zM475.75 153.048c-138.456-79.532-298.888-60.11-358.335 43.38-59.446 103.49 4.604 251.858 143.061 331.39 138.456 79.532 298.887 60.11 358.334-43.38 59.446-103.49-4.604-251.859-143.06-331.39z" fill="#351C0E" fill-opacity=".1"/><path opacity=".5" d="M284.144 439.408c-93.045-53.446-135.469-154.23-94.756-225.106 40.712-70.876 149.144-85.005 242.189-31.558 93.045 53.446 135.469 154.23 94.756 225.106-40.712 70.876-149.144 85.005-242.189 31.558zm145.475-253.256c-90.574-52.026-196.125-38.272-235.756 30.721s1.666 167.099 92.239 219.126c90.574 52.027 196.125 38.273 235.756-30.72s-1.666-167.1-92.239-219.127z" fill="#351C0E" fill-opacity=".1"/></svg>