<svg width="62" height="16" viewBox="0 0 62 16" fill="none" xmlns="http://www.w3.org/2000/svg">
<path opacity="0.7" d="M5.56762 15.9659C4.79974 15.9659 4.08254 15.8187 3.41602 15.5244C2.7495 15.2161 2.1627 14.8027 1.65563 14.2841C1.14855 13.7516 0.75004 13.1419 0.460295 12.4552C0.184974 11.7684 0.0473633 11.0326 0.0473633 10.2478C0.0473633 9.21078 0.286428 8.27175 0.76456 7.43086C1.24269 6.57593 1.8947 5.90322 2.72056 5.41273C3.56095 4.9082 4.50269 4.65593 5.54589 4.65593C6.5311 4.65593 7.40014 4.8802 8.15389 5.32864C8.92147 5.76313 9.50135 6.36571 9.89255 7.13655L9.17535 7.38882C8.8128 6.74411 8.29911 6.23957 7.63229 5.87522C6.98029 5.51087 6.26309 5.32864 5.48069 5.32864C4.61136 5.32864 3.82175 5.54584 3.11176 5.98033C2.40177 6.41482 1.83671 7.00344 1.41656 7.7462C0.996419 8.48895 0.786297 9.32287 0.786297 10.2478C0.786297 11.1728 1.00363 12.0207 1.43829 12.7915C1.87296 13.5483 2.44524 14.158 3.15522 14.6205C3.86521 15.0689 4.64761 15.2932 5.50242 15.2932C6.06749 15.2932 6.61803 15.195 7.15416 14.9989C7.69057 14.7886 8.15388 14.5223 8.54508 14.2C8.93628 13.8637 9.19017 13.5063 9.30575 13.1279L10.0447 13.3381C9.856 13.8426 9.5379 14.2911 9.08842 14.6835C8.63894 15.076 8.11042 15.3913 7.50189 15.6295C6.89335 15.8538 6.24857 15.9659 5.56762 15.9659ZM17.1327 15.9659C16.1182 15.9659 15.1984 15.7066 14.3726 15.1881C13.5467 14.6695 12.8947 13.9828 12.4166 13.1279C11.9384 12.273 11.6994 11.341 11.6994 10.3319C11.6994 9.56108 11.8367 8.83238 12.1123 8.14562C12.4018 7.45886 12.793 6.85629 13.2859 6.33771C13.7927 5.81913 14.3726 5.41273 15.0246 5.11842C15.6766 4.81006 16.379 4.65593 17.1327 4.65593C17.8865 4.65593 18.5888 4.81006 19.2408 5.11842C19.9077 5.41273 20.4865 5.81913 20.9795 6.33771C21.4863 6.85629 21.8775 7.45886 22.1531 8.14562C22.4426 8.83238 22.5878 9.56108 22.5878 10.3319C22.5878 11.0887 22.4426 11.8105 22.1531 12.4972C21.8775 13.1699 21.4942 13.7655 21.0012 14.2841C20.5083 14.8027 19.9294 15.2161 19.2626 15.5244C18.6106 15.8187 17.9003 15.9659 17.1327 15.9659ZM12.4383 10.353C12.4383 11.2639 12.6487 12.0978 13.0686 12.8546C13.5032 13.5974 14.0683 14.193 14.7638 14.6415C15.4741 15.076 16.2565 15.2932 17.111 15.2932C17.9803 15.2932 18.7696 15.0689 19.4799 14.6205C20.1902 14.172 20.7553 13.5694 21.1751 12.8126C21.6098 12.0417 21.8271 11.2079 21.8271 10.3109C21.8271 9.39998 21.6098 8.57304 21.1751 7.83029C20.7553 7.07349 20.1902 6.47082 19.4799 6.02237C18.7696 5.55989 17.9872 5.32864 17.1327 5.32864C16.292 5.32864 15.5096 5.55989 14.7855 6.02237C14.0752 6.47082 13.5032 7.08046 13.0686 7.85131C12.6487 8.60811 12.4383 9.44202 12.4383 10.353ZM25.7579 15.7557V5.45477H24.1496V4.82411H25.7579V4.42469C25.7579 3.10726 26.0335 2.07717 26.5837 1.33442C27.134 0.577619 27.8877 0.199219 28.844 0.199219C29.2638 0.199219 29.6699 0.26926 30.0611 0.40944C30.4523 0.535574 30.7634 0.703752 30.9956 0.913975L30.6261 1.39749C30.2201 1.03313 29.655 0.850908 28.9309 0.850908C28.1485 0.850908 27.5469 1.15927 27.1271 1.77589C26.7072 2.37855 26.4968 3.26149 26.4968 4.42469V4.82411H29.8003V5.45477H26.4968V15.7557H25.7579ZM32.6612 15.7557V5.45477H31.0529V4.82411H32.6612V4.42469C32.6612 3.10726 32.9358 2.07717 33.487 1.33442C34.0373 0.577619 34.791 0.199219 35.7473 0.199219C36.1671 0.199219 36.5732 0.26926 36.9643 0.40944C37.3555 0.535574 37.6667 0.703752 37.8989 0.913975L37.5294 1.39749C37.1234 1.03313 36.5583 0.850908 35.8342 0.850908C35.0518 0.850908 34.4502 1.15927 34.0304 1.77589C33.6095 2.37855 33.4001 3.26149 33.4001 4.42469V4.82411H36.7036V5.45477H33.4001V15.7557H32.6612ZM43.0754 15.9659C42.3068 15.9659 41.5896 15.8187 40.9238 15.5244C40.2569 15.2161 39.6701 14.8027 39.1634 14.2841C38.6704 13.7516 38.2792 13.1419 37.9898 12.4552C37.7142 11.7545 37.5768 11.0116 37.5768 10.2268C37.5768 9.20371 37.8159 8.27175 38.294 7.43086C38.7722 6.58998 39.4163 5.91726 40.2283 5.41273C41.0542 4.9082 41.9739 4.65593 42.9884 4.65593C44.0316 4.65593 44.9583 4.91517 45.7703 5.43375C46.5962 5.93829 47.2482 6.61797 47.7263 7.47291C48.2183 8.3138 48.4721 9.25282 48.487 10.2899C48.487 10.346 48.479 10.402 48.4652 10.4581C48.4652 10.5142 48.4652 10.5702 48.4652 10.6262H38.3375C38.4096 11.5092 38.6635 12.308 39.0982 13.0228C39.5467 13.7375 40.1196 14.3051 40.8151 14.7256C41.5106 15.146 42.2781 15.3562 43.1188 15.3562C43.9447 15.3562 44.7192 15.153 45.4443 14.7466C46.1684 14.3262 46.6831 13.7936 46.9874 13.1489L47.6611 13.3171C47.4438 13.8216 47.1029 14.2771 46.6396 14.6835C46.1753 15.076 45.632 15.3913 45.0096 15.6295C44.4011 15.8538 43.756 15.9659 43.0754 15.9659ZM38.3158 10.0166H47.748C47.6897 9.09162 47.4438 8.27873 47.0091 7.57802C46.5744 6.86326 46.0094 6.30264 45.3139 5.89624C44.6323 5.48984 43.8647 5.2866 43.0102 5.2866C42.1695 5.2866 41.4019 5.48984 40.7064 5.89624C40.0248 6.30264 39.4676 6.86326 39.033 7.57802C38.6121 8.29278 38.3731 9.10567 38.3158 10.0166ZM55.6609 15.9659C54.8924 15.9659 54.1752 15.8187 53.5093 15.5244C52.8425 15.2161 52.2557 14.8027 51.7489 14.2841C51.256 13.7516 50.8648 13.1419 50.5753 12.4552C50.2997 11.7545 50.1624 11.0116 50.1624 10.2268C50.1624 9.20371 50.4015 8.27175 50.8796 7.43086C51.3577 6.58998 52.0018 5.91726 52.8139 5.41273C53.6397 4.9082 54.5594 4.65593 55.574 4.65593C56.6172 4.65593 57.5438 4.91517 58.3559 5.43375C59.1817 5.93829 59.8337 6.61797 60.3119 7.47291C60.8038 8.3138 61.0577 9.25282 61.0725 10.2899C61.0725 10.346 61.0646 10.402 61.0508 10.4581C61.0508 10.5142 61.0508 10.5702 61.0508 10.6262H50.9231C50.9952 11.5092 51.2491 12.308 51.6837 13.0228C52.1322 13.7375 52.7052 14.3051 53.4007 14.7256C54.0961 15.146 54.8637 15.3562 55.7044 15.3562C56.5303 15.3562 57.3048 15.153 58.0299 14.7466C58.754 14.3262 59.2687 13.7936 59.5729 13.1489L60.2467 13.3171C60.0293 13.8216 59.6885 14.2771 59.2252 14.6835C58.7609 15.076 58.2176 15.3913 57.5952 15.6295C56.9867 15.8538 56.3416 15.9659 55.6609 15.9659ZM50.9013 10.0166H60.3336C60.2753 9.09162 60.0293 8.27873 59.5947 7.57802C59.16 6.86326 58.5949 6.30264 57.8995 5.89624C57.2178 5.48984 56.4502 5.2866 55.5957 5.2866C54.755 5.2866 53.9875 5.48984 53.292 5.89624C52.6104 6.30264 52.0532 6.86326 51.6185 7.57802C51.1977 8.29278 50.9586 9.10567 50.9013 10.0166Z" fill="#FCF8F1"/>
</svg>
