<svg width="50" height="50" fill="none" xmlns="http://www.w3.org/2000/svg"><g clip-path="url(#clip0)"><path d="M40.257 32.902c.24-.514.368-1.075.368-1.652a3.907 3.907 0 00-3.204-3.835c.53-.667.86-1.5.86-2.415 0-1.683-1.075-3.107-2.57-3.655a3.878 3.878 0 001.008-2.595 3.91 3.91 0 00-3.907-3.906h-.02a3.87 3.87 0 00.483-.805A4.693 4.693 0 0037.5 9.375c0-.604-.119-1.179-.327-1.71 1.737-2.211 2.67-5.345 2.67-6.884h-1.562c0 1.175-.702 3.603-1.986 5.467a4.67 4.67 0 00-3.483-1.56 4.653 4.653 0 00-3.992 2.249l-4.197-1.68-.608 1.217a3.82 3.82 0 01-1.42 1.555l-3.358-6.044a2.348 2.348 0 00-3.186-.91 2.325 2.325 0 00-1.116 1.405c-.173.602-.1 1.236.205 1.783l2.844 5.119a3.89 3.89 0 00-1.578 3.118c0 .883.306 1.69.802 2.344h-.02a3.91 3.91 0 00-3.907 3.906c0 1 .388 1.902 1.008 2.595-1.495.548-2.57 1.972-2.57 3.655 0 .916.33 1.748.86 2.415a3.907 3.907 0 00-3.204 3.835c0 .577.13 1.136.37 1.65L8.52 34.126l2.674 12.034a3.884 3.884 0 003.813 3.059h19.986a3.885 3.885 0 003.814-3.06l2.674-12.033-1.224-1.224zM32.813 6.25a3.128 3.128 0 013.124 3.125 3.134 3.134 0 01-2.35 3.029A5.361 5.361 0 0030.3 7.537a3.094 3.094 0 012.512-1.287zM16.505 3.505a.763.763 0 01-.067-.595.773.773 0 01.372-.468.803.803 0 011.061.303l3.23 5.814c-.17.021-.342.035-.516.035h-.273c-.315 0-.618.047-.913.119l-2.893-5.208zM17.97 12.5a2.347 2.347 0 012.343-2.344h.273a5.367 5.367 0 004.792-2.914l4.245 1.698a3.816 3.816 0 012.41 3.56 2.347 2.347 0 01-2.344 2.344h-9.375A2.347 2.347 0 0117.97 12.5zm-.782 3.906h15.625a2.347 2.347 0 012.344 2.344 2.347 2.347 0 01-2.343 2.344H17.187a2.347 2.347 0 01-2.343-2.344 2.347 2.347 0 012.344-2.344zm-1.562 6.25h18.75A2.347 2.347 0 0136.719 25a2.347 2.347 0 01-2.344 2.344h-18.75A2.347 2.347 0 0113.281 25a2.347 2.347 0 012.344-2.344zm-4.688 8.594a2.347 2.347 0 012.344-2.344H36.72a2.347 2.347 0 012.343 2.344c0 .141-.016.28-.04.416l-1.522-1.52-3.125 3.124-3.125-3.125-3.125 3.125L25 30.145l-3.125 3.125-3.125-3.125-3.125 3.125-3.125-3.125-1.522 1.522a2.399 2.399 0 01-.04-.417zm21.176 16.406H28.17l.72-12.94 2.361-2.361 2.307 2.307-1.444 12.994zm-15.67-12.994l2.307-2.307 2.362 2.361.719 12.94h-3.944l-1.444-12.994zm6.231.019L25 32.355l2.326 2.326-.721 12.975h-3.21l-.72-12.975zM12.72 45.82l-2.49-11.196 2.27-2.27 2.379 2.38 1.436 12.922h-1.308a2.33 2.33 0 01-2.288-1.835zm24.562 0a2.33 2.33 0 01-2.288 1.835h-1.308l1.436-12.922 2.379-2.38 2.269 2.27-2.49 11.197z" fill="#FBA902"/></g><defs><clipPath id="clip0"><path fill="#fff" d="M0 0h50v50H0z"/></clipPath></defs></svg>