<svg width="15" height="14" viewBox="0 0 15 14" fill="none" xmlns="http://www.w3.org/2000/svg">
<path d="M2.16016 2.26562L3.1958 0.0234375H4.31689L2.68311 3.19531V5H1.64062V3.19531L0.00683594 0.0234375H1.13135L2.16016 2.26562ZM8.20996 0.0234375V3.30127C8.20996 3.84587 8.03906 4.27653 7.69727 4.59326C7.35775 4.90999 6.8929 5.06836 6.30273 5.06836C5.72168 5.06836 5.26025 4.91455 4.91846 4.60693C4.57666 4.29932 4.40234 3.87663 4.39551 3.33887V0.0234375H5.4209V3.30811C5.4209 3.63395 5.49837 3.87207 5.65332 4.02246C5.81055 4.17057 6.02702 4.24463 6.30273 4.24463C6.87923 4.24463 7.17204 3.94157 7.18115 3.33545V0.0234375H8.20996ZM10.3906 0.0234375L11.6689 3.63281L12.9404 0.0234375H14.2871V5H13.2583V3.63965L13.3608 1.2915L12.0176 5H11.3135L9.97363 1.29492L10.0762 3.63965V5H9.05078V0.0234375H10.3906ZM2.16016 10.2656L3.1958 8.02344H4.31689L2.68311 11.1953V13H1.64062V11.1953L0.00683594 8.02344H1.13135L2.16016 10.2656ZM8.20996 8.02344V11.3013C8.20996 11.8459 8.03906 12.2765 7.69727 12.5933C7.35775 12.91 6.8929 13.0684 6.30273 13.0684C5.72168 13.0684 5.26025 12.9146 4.91846 12.6069C4.57666 12.2993 4.40234 11.8766 4.39551 11.3389V8.02344H5.4209V11.3081C5.4209 11.634 5.49837 11.8721 5.65332 12.0225C5.81055 12.1706 6.02702 12.2446 6.30273 12.2446C6.87923 12.2446 7.17204 11.9416 7.18115 11.3354V8.02344H8.20996ZM10.3906 8.02344L11.6689 11.6328L12.9404 8.02344H14.2871V13H13.2583V11.6396L13.3608 9.2915L12.0176 13H11.3135L9.97363 9.29492L10.0762 11.6396V13H9.05078V8.02344H10.3906Z" fill="#FBA902"/>
</svg>
