<svg width="28" height="28" viewBox="0 0 28 28" fill="none" xmlns="http://www.w3.org/2000/svg">
<path d="M5.3525 0.25C4.00085 0.255267 2.70607 0.794542 1.75031 1.75031C0.794542 2.70607 0.255267 4.00085 0.25 5.3525V22.6475C0.255267 23.9991 0.794542 25.2939 1.75031 26.2497C2.70607 27.2055 4.00085 27.7447 5.3525 27.75H22.6475C23.9991 27.7447 25.2939 27.2055 26.2497 26.2497C27.2055 25.2939 27.7447 23.9991 27.75 22.6475V5.3525C27.7447 4.00085 27.2055 2.70607 26.2497 1.75031C25.2939 0.794542 23.9991 0.255267 22.6475 0.25H5.3525ZM5.3525 2.75H22.6475C24.0975 2.75 25.25 3.9025 25.25 5.3525V22.6475C25.25 24.0975 24.0975 25.25 22.6475 25.25H5.3525C5.01013 25.2522 4.67074 25.1863 4.35402 25.0563C4.03729 24.9263 3.74954 24.7347 3.50744 24.4926C3.26535 24.2505 3.07373 23.9627 2.94371 23.646C2.81368 23.3293 2.74784 22.9899 2.75 22.6475V5.3525C2.75 3.9025 3.9025 2.75 5.3525 2.75ZM13.6488 9.2875C12.73 9.27875 11.9488 9.2875 11.51 9.5025C11.2163 9.645 10.9925 9.96625 11.1287 9.98125C11.3 10.0062 11.685 10.0887 11.8912 10.3675C12.1537 10.7238 12.145 11.53 12.145 11.53C12.145 11.53 12.2912 13.7463 11.7875 14.025C11.4412 14.215 10.9675 13.8287 9.9425 12.0662C9.42 11.1588 9.025 10.1575 9.025 10.1575C9.025 10.1575 8.95 9.97125 8.815 9.87375C8.64875 9.7525 8.41875 9.7125 8.41875 9.7125L5.9725 9.7275C5.9725 9.7275 5.60625 9.7425 5.475 9.89875C5.3525 10.045 5.465 10.3325 5.465 10.3325C5.465 10.3325 7.37875 14.81 9.54625 17.0662C11.5338 19.1375 13.79 19 13.79 19H14.815C14.815 19 15.1225 18.9662 15.2788 18.8C15.4263 18.6437 15.4212 18.35 15.4212 18.35C15.4212 18.35 15.4012 16.9788 16.0362 16.7738C16.6663 16.5775 17.4663 18.1012 18.3213 18.6875C18.9713 19.1313 19.4638 19.0338 19.4638 19.0338L21.75 19C21.75 19 22.9413 18.9263 22.375 17.9837C22.3313 17.9113 22.0475 17.2913 20.6812 16.0213C19.245 14.6938 19.4363 14.9088 21.1638 12.6088C22.2138 11.2075 22.6338 10.3525 22.5013 9.98125C22.3763 9.635 21.6038 9.7275 21.6038 9.7275L19.03 9.7425C19.03 9.7425 18.84 9.7175 18.6988 9.80125C18.6016 9.87338 18.5242 9.96882 18.4738 10.0787C18.4738 10.0787 18.0637 11.1625 17.5212 12.0863C16.3787 14.0287 15.915 14.1362 15.73 14.015C15.295 13.7312 15.4025 12.8813 15.4025 12.2812C15.4025 10.3912 15.69 9.61 14.8463 9.40625C14.5675 9.3375 14.3625 9.29375 13.65 9.2875H13.6488Z" fill="#FCF8F1"/>
</svg>
