<svg width="163" height="43" viewBox="0 0 163 43" fill="none" xmlns="http://www.w3.org/2000/svg">
<path d="M3.30035 1.49316L8.55947 10.655L13.8722 1.49316H17.1726L10.062 13.3283V19.9206H7.05686V13.2763L0 1.49316H3.30035Z" fill="#FBA902"/>
<path d="M28.3244 20.2249C26.7892 20.2249 25.4825 19.9694 24.4042 19.4583C23.3258 18.947 22.4577 18.2509 21.7998 17.3696C21.1418 16.4707 20.6666 15.466 20.3742 14.3557C20.0818 13.2277 19.9355 12.0556 19.9355 10.8394V1.32178H23.006V10.8394C23.006 11.7031 23.0973 12.5402 23.2801 13.351C23.463 14.1441 23.7554 14.858 24.1573 15.4926C24.5594 16.127 25.0986 16.6293 25.7749 16.9995C26.4694 17.3696 27.3192 17.5547 28.3244 17.5547C29.348 17.5547 30.1978 17.3696 30.874 16.9995C31.5686 16.6118 32.1168 16.1005 32.5189 15.466C32.921 14.814 33.2042 14.0913 33.3688 13.2982C33.5515 12.5051 33.6428 11.6854 33.6428 10.8394V1.32178H36.7407V10.8394C36.7407 12.1261 36.5763 13.3334 36.2472 14.4615C35.9365 15.5894 35.4431 16.5853 34.7669 17.4489C34.1089 18.3125 33.2409 18.9912 32.1625 19.4846C31.1024 19.9782 29.823 20.2249 28.3244 20.2249Z" fill="#FBA902"/>
<path d="M56.7601 19.9206V6.78782L51.1521 16.7543H49.3812L43.7464 6.78782V19.9206H40.7412V1.49316H43.9611L50.2666 12.7573L56.5722 1.49316H59.7921V19.9206H56.7601Z" fill="#FBA902"/>
<path d="M3.30035 22.9714L8.55947 32.1332L13.8722 22.9714H17.1726L10.062 34.8066V41.3989H7.05686V34.7546L0 22.9714H3.30035Z" fill="#FBA902"/>
<path d="M28.3244 41.7024C26.7892 41.7024 25.4825 41.4469 24.4042 40.9358C23.3258 40.4245 22.4577 39.7284 21.7998 38.8471C21.1418 37.9482 20.6666 36.9436 20.3742 35.8332C20.0818 34.7053 19.9355 33.5332 19.9355 32.3169V22.7993H23.006V32.3169C23.006 33.1806 23.0973 34.0178 23.2801 34.8285C23.463 35.6217 23.7554 36.3355 24.1573 36.9701C24.5594 37.6045 25.0986 38.1068 25.7749 38.477C26.4694 38.8471 27.3192 39.0322 28.3244 39.0322C29.348 39.0322 30.1978 38.8471 30.874 38.477C31.5686 38.0893 32.1168 37.5781 32.5189 36.9436C32.921 36.2915 33.2042 35.5688 33.3688 34.7757C33.5515 33.9826 33.6428 33.1629 33.6428 32.3169V22.7993H36.7407V32.3169C36.7407 33.6036 36.5763 34.8109 36.2472 35.939C35.9365 37.0669 35.4431 38.0628 34.7669 38.9264C34.1089 39.7901 33.2409 40.4687 32.1625 40.9621C31.1024 41.4557 29.823 41.7024 28.3244 41.7024Z" fill="#FBA902"/>
<path d="M56.7601 41.3988V28.2661L51.1521 38.2325H49.3812L43.7464 28.2661V41.3988H40.7412V22.9714H43.9611L50.2666 34.2355L56.5722 22.9714H59.7921V41.3988H56.7601Z" fill="#FBA902"/>
<path opacity="0.7" d="M99.5676 26.9656C98.7997 26.9656 98.0825 26.8185 97.416 26.5242C96.7495 26.2158 96.1627 25.8024 95.6556 25.2839C95.1485 24.7513 94.75 24.1417 94.4603 23.4549C94.185 22.7682 94.0474 22.0324 94.0474 21.2476C94.0474 20.2105 94.2864 19.2715 94.7646 18.4306C95.2427 17.5757 95.8947 16.903 96.7206 16.4125C97.5609 15.908 98.5027 15.6557 99.5459 15.6557C100.531 15.6557 101.4 15.88 102.154 16.3284C102.921 16.7629 103.501 17.3655 103.893 18.1363L103.175 18.3886C102.813 17.7439 102.299 17.2393 101.632 16.875C100.98 16.5106 100.263 16.3284 99.4807 16.3284C98.6114 16.3284 97.8217 16.5456 97.1118 16.9801C96.4018 17.4146 95.8367 18.0032 95.4166 18.746C94.9964 19.4887 94.7863 20.3226 94.7863 21.2476C94.7863 22.1726 95.0036 23.0204 95.4383 23.7913C95.873 24.5481 96.4452 25.1577 97.1552 25.6202C97.8652 26.0687 98.6476 26.2929 99.5024 26.2929C100.067 26.2929 100.618 26.1948 101.154 25.9986C101.691 25.7884 102.154 25.5221 102.545 25.1998C102.936 24.8634 103.19 24.506 103.306 24.1276L104.045 24.3379C103.856 24.8424 103.538 25.2908 103.088 25.6833C102.639 26.0757 102.11 26.3911 101.502 26.6293C100.893 26.8536 100.249 26.9656 99.5676 26.9656ZM111.133 26.9656C110.118 26.9656 109.198 26.7064 108.373 26.1878C107.547 25.6692 106.895 24.9826 106.417 24.1276C105.938 23.2727 105.699 22.3408 105.699 21.3317C105.699 20.5608 105.837 19.8321 106.112 19.1454C106.402 18.4586 106.793 17.856 107.286 17.3375C107.793 16.8189 108.373 16.4125 109.025 16.1182C109.677 15.8098 110.379 15.6557 111.133 15.6557C111.886 15.6557 112.589 15.8098 113.241 16.1182C113.908 16.4125 114.487 16.8189 114.979 17.3375C115.486 17.856 115.877 18.4586 116.153 19.1454C116.443 19.8321 116.588 20.5608 116.588 21.3317C116.588 22.0885 116.443 22.8102 116.153 23.497C115.877 24.1697 115.494 24.7653 115.001 25.2839C114.508 25.8024 113.929 26.2158 113.263 26.5242C112.611 26.8185 111.9 26.9656 111.133 26.9656ZM106.438 21.3527C106.438 22.2636 106.649 23.0976 107.069 23.8544C107.503 24.5971 108.068 25.1928 108.764 25.6412C109.474 26.0757 110.256 26.2929 111.111 26.2929C111.98 26.2929 112.77 26.0687 113.48 25.6202C114.19 25.1718 114.755 24.5691 115.175 23.8123C115.61 23.0415 115.827 22.2076 115.827 21.3107C115.827 20.3997 115.61 19.5728 115.175 18.83C114.755 18.0732 114.19 17.4706 113.48 17.0221C112.77 16.5596 111.987 16.3284 111.133 16.3284C110.292 16.3284 109.51 16.5596 108.786 17.0221C108.075 17.4706 107.503 18.0802 107.069 18.8511C106.649 19.6079 106.438 20.4418 106.438 21.3527ZM119.758 26.7554V16.4545H118.15V15.8239H119.758V15.4244C119.758 14.107 120.033 13.0769 120.584 12.3342C121.134 11.5774 121.888 11.199 122.844 11.199C123.264 11.199 123.67 11.269 124.061 11.4092C124.452 11.5353 124.763 11.7035 124.996 11.9137L124.626 12.3972C124.22 12.0329 123.655 11.8507 122.931 11.8507C122.149 11.8507 121.547 12.159 121.127 12.7756C120.707 13.3783 120.497 14.2612 120.497 15.4244V15.8239H123.8V16.4545H120.497V26.7554H119.758ZM126.661 26.7554V16.4545H125.053V15.8239H126.661V15.4244C126.661 14.107 126.936 13.0769 127.487 12.3342C128.037 11.5774 128.791 11.199 129.747 11.199C130.167 11.199 130.573 11.269 130.964 11.4092C131.356 11.5353 131.667 11.7035 131.899 11.9137L131.529 12.3972C131.123 12.0329 130.558 11.8507 129.834 11.8507C129.052 11.8507 128.45 12.159 128.03 12.7756C127.61 13.3783 127.4 14.2612 127.4 15.4244V15.8239H130.704V16.4545H127.4V26.7554H126.661ZM137.075 26.9656C136.307 26.9656 135.59 26.8185 134.924 26.5242C134.257 26.2158 133.67 25.8024 133.163 25.2839C132.67 24.7513 132.279 24.1417 131.99 23.4549C131.714 22.7542 131.577 22.0114 131.577 21.2266C131.577 20.2035 131.816 19.2715 132.294 18.4306C132.772 17.5897 133.416 16.917 134.228 16.4125C135.054 15.908 135.974 15.6557 136.988 15.6557C138.032 15.6557 138.958 15.9149 139.77 16.4335C140.596 16.938 141.248 17.6177 141.726 18.4727C142.218 19.3136 142.472 20.2526 142.487 21.2896C142.487 21.3457 142.479 21.4017 142.465 21.4578C142.465 21.5139 142.465 21.5699 142.465 21.626H132.337C132.41 22.5089 132.664 23.3078 133.098 24.0225C133.547 24.7373 134.12 25.3049 134.815 25.7253C135.511 26.1458 136.278 26.356 137.119 26.356C137.945 26.356 138.719 26.1528 139.444 25.7464C140.168 25.3259 140.683 24.7934 140.987 24.1487L141.661 24.3168C141.444 24.8214 141.103 25.2769 140.64 25.6833C140.175 26.0757 139.632 26.3911 139.01 26.6293C138.401 26.8536 137.756 26.9656 137.075 26.9656ZM132.316 21.0164H141.748C141.69 20.0914 141.444 19.2785 141.009 18.5778C140.574 17.863 140.009 17.3024 139.314 16.896C138.632 16.4896 137.865 16.2864 137.01 16.2864C136.169 16.2864 135.402 16.4896 134.706 16.896C134.025 17.3024 133.468 17.863 133.033 18.5778C132.612 19.2925 132.373 20.1054 132.316 21.0164ZM149.661 26.9656C148.892 26.9656 148.175 26.8185 147.509 26.5242C146.843 26.2158 146.256 25.8024 145.749 25.2839C145.256 24.7513 144.865 24.1417 144.575 23.4549C144.3 22.7542 144.162 22.0114 144.162 21.2266C144.162 20.2035 144.401 19.2715 144.88 18.4306C145.358 17.5897 146.002 16.917 146.814 16.4125C147.64 15.908 148.559 15.6557 149.574 15.6557C150.617 15.6557 151.544 15.9149 152.356 16.4335C153.182 16.938 153.834 17.6177 154.312 18.4727C154.804 19.3136 155.058 20.2526 155.073 21.2896C155.073 21.3457 155.065 21.4017 155.051 21.4578C155.051 21.5139 155.051 21.5699 155.051 21.626H144.923C144.995 22.5089 145.249 23.3078 145.684 24.0225C146.132 24.7373 146.705 25.3049 147.401 25.7253C148.096 26.1458 148.864 26.356 149.704 26.356C150.53 26.356 151.305 26.1528 152.03 25.7464C152.754 25.3259 153.269 24.7934 153.573 24.1487L154.247 24.3168C154.029 24.8214 153.688 25.2769 153.225 25.6833C152.761 26.0757 152.218 26.3911 151.595 26.6293C150.987 26.8536 150.342 26.9656 149.661 26.9656ZM144.901 21.0164H154.334C154.275 20.0914 154.029 19.2785 153.595 18.5778C153.16 17.863 152.595 17.3024 151.899 16.896C151.218 16.4896 150.45 16.2864 149.596 16.2864C148.755 16.2864 147.987 16.4896 147.292 16.896C146.61 17.3024 146.053 17.863 145.619 18.5778C145.198 19.2925 144.959 20.1054 144.901 21.0164Z" fill="#fcf8f1"/>
<path opacity="0.7" d="M80 1L80 41" stroke="#fcf8f1" stroke-width="0.5"/>
</svg>
