<svg width="28" height="28" viewBox="0 0 28 28" fill="none" xmlns="http://www.w3.org/2000/svg">
<path d="M13.6464 9.2875L13.6464 9.28749C13.1862 9.28311 12.7713 9.28332 12.4185 9.31036C12.0608 9.33777 11.7951 9.39118 11.62 9.477L11.6191 9.47743C11.5732 9.49973 11.5288 9.52862 11.4889 9.55993C11.5224 9.57106 11.5567 9.58362 11.5914 9.59778C11.7593 9.66637 11.9523 9.77968 12.0922 9.9688L12.0925 9.9692C12.2656 10.2042 12.3338 10.5534 12.3646 10.8015C12.381 10.9331 12.3886 11.0523 12.3921 11.1384C12.3938 11.1816 12.3945 11.2168 12.3948 11.2417L12.395 11.2709L12.395 11.2726L12.3961 11.2904C12.3971 11.3074 12.3984 11.3321 12.4 11.3635C12.4031 11.4261 12.4069 11.5156 12.4099 11.6238C12.4158 11.8395 12.4185 12.1317 12.4049 12.4342C12.3914 12.7344 12.3616 13.0551 12.2994 13.3239C12.2684 13.4581 12.2272 13.5888 12.1705 13.7007C12.1153 13.8098 12.0334 13.9246 11.9085 13.9937L11.9078 13.9942C11.7595 14.0755 11.5922 14.0932 11.4169 14.0337C11.2549 13.9787 11.0988 13.8624 10.9418 13.7036C10.6277 13.386 10.2396 12.8244 9.72639 11.9419L9.72584 11.941C9.45896 11.4775 9.22581 10.9922 9.05992 10.6243C8.9768 10.4401 8.91018 10.2844 8.86425 10.1746C8.84127 10.1197 8.82346 10.0762 8.81132 10.0462L8.79743 10.0118L8.7938 10.0027L8.79354 10.002M13.6464 9.2875L8.79359 10.0021C8.79364 10.0022 8.79362 10.0022 8.79354 10.002M13.6464 9.2875H13.6488H13.6464ZM8.79354 10.002L8.79338 10.0016L8.79337 10.0016L8.79252 9.99962C8.7913 9.99682 8.78908 9.99189 8.78592 9.98533C8.77952 9.97203 8.7697 9.95299 8.75686 9.93181C8.72874 9.88545 8.69698 9.84689 8.66863 9.82642L8.66769 9.82574C8.61504 9.78734 8.54422 9.75694 8.47804 9.73567C8.44652 9.72554 8.41926 9.71849 8.40041 9.71409C8.3982 9.71357 8.39612 9.71309 8.39417 9.71266L5.98002 9.72746L5.97388 9.72785C5.96622 9.72838 5.9544 9.72933 5.93951 9.7309C5.90934 9.73409 5.86866 9.73964 5.82567 9.74891C5.78182 9.75837 5.74142 9.77045 5.70933 9.78466C5.68793 9.79414 5.67611 9.80198 5.67052 9.80622C5.67014 9.80795 5.66972 9.8102 5.66932 9.81302C5.66696 9.82982 5.6672 9.85448 5.67158 9.88529C5.67581 9.91507 5.68284 9.94329 5.6891 9.9645C5.69215 9.97482 5.69481 9.9828 5.6965 9.98765L5.69727 9.98981L5.70008 9.99632L5.71617 10.0334C5.73046 10.0661 5.7518 10.1147 5.77979 10.1775C5.83578 10.303 5.91835 10.4853 6.02426 10.7113C6.23614 11.1633 6.54111 11.7894 6.91327 12.4854C7.66056 13.8829 8.66772 15.5409 9.72654 16.6431L9.72664 16.6432C10.6842 17.6411 11.7032 18.1042 12.48 18.3189C12.8689 18.4263 13.1972 18.4715 13.4264 18.4899C13.5409 18.4991 13.6305 18.5016 13.6903 18.5019C13.7201 18.502 13.7425 18.5016 13.7568 18.5011L13.7721 18.5006L13.7748 18.5005L13.775 18.5005L13.7751 18.5004L13.7752 18.5004L13.7753 18.5004L13.7824 18.5H13.79H14.7981C14.8037 18.4991 14.8112 18.4979 14.8202 18.4963C14.8445 18.4918 14.8785 18.4844 14.9158 18.4731C14.998 18.4482 15.0634 18.414 15.0966 18.3788L15.097 18.3784C15.121 18.3529 15.1452 18.2981 15.1595 18.221C15.1658 18.1867 15.1688 18.1555 15.1702 18.1331C15.1709 18.122 15.1711 18.1135 15.1712 18.1084L15.1713 18.1041L15.1713 18.1034V18.1034V18.1031L15.1713 18.1029L15.1713 18.1017L15.1712 18.0978L15.1712 18.0843C15.1712 18.0781 15.1712 18.0705 15.1713 18.0615C15.1714 18.0539 15.1715 18.0455 15.1717 18.0361C15.1724 17.9952 15.1742 17.9372 15.1785 17.8673C15.187 17.7283 15.2054 17.5383 15.2456 17.3393C15.2853 17.1424 15.3488 16.924 15.4537 16.7351C15.5585 16.5465 15.7184 16.3637 15.9594 16.2858L15.9619 16.2851C16.2317 16.201 16.4844 16.3137 16.6826 16.453C16.8849 16.5952 17.087 16.8047 17.2804 17.0202C17.3668 17.1164 17.4494 17.2115 17.5317 17.3061C17.6443 17.4356 17.7562 17.5643 17.8758 17.694C18.0774 17.9124 18.2725 18.1009 18.4626 18.2313C18.7549 18.4308 19.0047 18.5041 19.1739 18.5299C19.259 18.5428 19.325 18.5439 19.3669 18.5422C19.3878 18.5414 19.4027 18.5399 19.411 18.5389L19.4179 18.538L19.4181 18.538L19.4184 18.5379L8.79354 10.002ZM18.7041 9.92644C18.7348 9.86215 18.7798 9.80572 18.8355 9.76141C18.8585 9.75055 18.8928 9.74258 18.9335 9.73995C18.9545 9.73859 18.9728 9.73893 18.9852 9.73957C18.9913 9.73988 18.9957 9.74026 18.9979 9.74047C18.9981 9.74049 18.9981 9.74046 18.9983 9.74048C18.9985 9.7405 18.9989 9.74056 18.999 9.74057M18.7041 9.92644L18.999 9.74057M18.7041 9.92644L18.7024 9.93078L18.688 9.96802C18.6754 10.0003 18.6568 10.0472 18.633 10.1062C18.5853 10.2242 18.5161 10.391 18.4297 10.5869C18.2574 10.9778 18.0149 11.4893 17.7368 11.9629L17.7367 11.963C17.1624 12.9394 16.7453 13.4791 16.4341 13.7601C16.2785 13.9006 16.1329 13.9917 15.9919 14.0294C15.8397 14.0702 15.7021 14.0456 15.593 13.9741M18.7041 9.92644L13.6489 9.2875C14.3445 9.29364 14.5297 9.33567 14.7864 9.39898L14.7876 9.39927C14.9579 9.44039 15.037 9.50115 15.0841 9.5687C15.1374 9.64514 15.1758 9.76707 15.1915 9.97973C15.207 10.1913 15.1984 10.4575 15.1844 10.8033C15.1834 10.8295 15.1823 10.8561 15.1812 10.8832C15.168 11.2076 15.1525 11.5896 15.1525 12.0312C15.1525 12.114 15.15 12.2086 15.1473 12.3097C15.1412 12.5403 15.1342 12.8046 15.154 13.0379C15.1821 13.3681 15.2697 13.7629 15.593 13.9741M18.999 9.74057C18.999 9.74057 18.9989 9.74056 18.9989 9.74056C18.9989 9.74055 18.9991 9.74058 18.999 9.74057ZM18.999 9.74057C18.9991 9.74059 18.9994 9.74062 18.9995 9.74063L18.9995 9.74063L19.0143 9.7426L19.0315 9.7425L21.6052 9.7275L21.6194 9.72741L21.6331 9.72577L21.6332 9.72576L21.6333 9.72575L21.6334 9.72574L18.999 9.74057ZM15.593 13.9741L15.73 13.765L15.5934 13.9744C15.5933 13.9743 15.5931 13.9742 15.593 13.9741ZM15.4211 18.1L15.1713 18.1036L15.1713 18.1035C15.1713 18.1036 15.1713 18.1036 15.4211 18.1ZM1.92708 1.67708C2.83609 0.768077 4.06749 0.255136 5.35299 0.25H22.647C23.9325 0.255136 25.1639 0.768077 26.0729 1.67708C26.9819 2.58609 27.4949 3.81749 27.5 5.10299C27.5 5.10315 27.5 5.10331 27.5 5.10347V22.3965C27.5 22.3967 27.5 22.3968 27.5 22.397C27.4949 23.6825 26.9819 24.9139 26.0729 25.8229C25.1639 26.7319 23.9325 27.2449 22.647 27.25C22.6468 27.25 22.6467 27.25 22.6465 27.25H5.35347C5.35331 27.25 5.35315 27.25 5.35299 27.25C4.06749 27.2449 2.83609 26.7319 1.92708 25.8229C1.01808 24.9139 0.505136 23.6825 0.5 22.397V5.10299C0.505136 3.81749 1.01808 2.58609 1.92708 1.67708ZM22.6475 2.25H5.3525C3.76443 2.25 2.5 3.51443 2.5 5.1025V22.3967C2.49774 22.7719 2.56995 23.1438 2.71244 23.4909C2.85503 23.8383 3.06517 24.1538 3.33067 24.4193C3.59616 24.6848 3.91174 24.895 4.25908 25.0376C4.60613 25.18 4.978 25.2522 5.35314 25.25H22.6475C24.2356 25.25 25.5 23.9856 25.5 22.3975V5.1025C25.5 3.51443 24.2356 2.25 22.6475 2.25Z" stroke="#FBA902" stroke-width="0.5"/>
</svg>
