<svg width="28" height="28" viewBox="0 0 28 28" fill="none" xmlns="http://www.w3.org/2000/svg">
<path d="M2.75 0.0712891C1.3825 0.0712891 0.25 1.20379 0.25 2.57129V25.0713C0.25 26.4388 1.3825 27.5713 2.75 27.5713H25.25C26.6175 27.5713 27.75 26.4388 27.75 25.0713V2.57129C27.75 1.20379 26.6175 0.0712891 25.25 0.0712891H2.75ZM2.75 2.57129H25.25V25.0713H18.765V16.6338H22.0075L22.4762 12.8838H18.7662V10.4613C18.7662 9.36879 19.0337 8.62629 20.6012 8.62629H22.6325V5.22754C22.2862 5.18379 21.085 5.11004 19.7037 5.11004C16.8225 5.11004 14.86 6.84379 14.86 10.0713V12.8838H11.5787V16.6338H14.8587V25.0713H2.75V2.57129Z" fill="#fba902"/>
</svg>
