<svg width="150" height="43" viewBox="0 0 150 43" fill="none" xmlns="http://www.w3.org/2000/svg">
<path d="M3.30035 1.49316L8.55947 10.655L13.8722 1.49316H17.1726L10.062 13.3283V19.9206H7.05686V13.2763L0 1.49316H3.30035Z" fill="#FBA902"/>
<path d="M28.3244 20.2249C26.7892 20.2249 25.4825 19.9694 24.4042 19.4583C23.3258 18.947 22.4577 18.2509 21.7998 17.3696C21.1418 16.4707 20.6666 15.466 20.3742 14.3557C20.0818 13.2277 19.9355 12.0556 19.9355 10.8394V1.32178H23.006V10.8394C23.006 11.7031 23.0973 12.5402 23.2801 13.351C23.463 14.1441 23.7554 14.858 24.1573 15.4926C24.5594 16.127 25.0986 16.6293 25.7749 16.9995C26.4694 17.3696 27.3192 17.5547 28.3244 17.5547C29.348 17.5547 30.1978 17.3696 30.874 16.9995C31.5686 16.6118 32.1168 16.1005 32.5189 15.466C32.921 14.814 33.2042 14.0913 33.3688 13.2982C33.5515 12.5051 33.6428 11.6854 33.6428 10.8394V1.32178H36.7407V10.8394C36.7407 12.1261 36.5763 13.3334 36.2472 14.4615C35.9365 15.5894 35.4431 16.5853 34.7669 17.4489C34.1089 18.3125 33.2409 18.9912 32.1625 19.4846C31.1024 19.9782 29.823 20.2249 28.3244 20.2249Z" fill="#FBA902"/>
<path d="M56.761 19.9206V6.78782L51.153 16.7543H49.3822L43.7474 6.78782V19.9206H40.7422V1.49316H43.9621L50.2676 12.7573L56.5731 1.49316H59.793V19.9206H56.761Z" fill="#FBA902"/>
<path d="M3.30035 22.9714L8.55947 32.1332L13.8722 22.9714H17.1726L10.062 34.8066V41.3989H7.05686V34.7546L0 22.9714H3.30035Z" fill="#FBA902"/>
<path d="M28.3244 41.7024C26.7892 41.7024 25.4825 41.4469 24.4042 40.9358C23.3258 40.4245 22.4577 39.7284 21.7998 38.8471C21.1418 37.9482 20.6666 36.9436 20.3742 35.8332C20.0818 34.7053 19.9355 33.5332 19.9355 32.3169V22.7993H23.006V32.3169C23.006 33.1806 23.0973 34.0178 23.2801 34.8285C23.463 35.6217 23.7554 36.3355 24.1573 36.9701C24.5594 37.6045 25.0986 38.1068 25.7749 38.477C26.4694 38.8471 27.3192 39.0322 28.3244 39.0322C29.348 39.0322 30.1978 38.8471 30.874 38.477C31.5686 38.0893 32.1168 37.5781 32.5189 36.9436C32.921 36.2915 33.2042 35.5688 33.3688 34.7757C33.5515 33.9826 33.6428 33.1629 33.6428 32.3169V22.7993H36.7407V32.3169C36.7407 33.6036 36.5763 34.8109 36.2472 35.939C35.9365 37.0669 35.4431 38.0628 34.7669 38.9264C34.1089 39.7901 33.2409 40.4687 32.1625 40.9621C31.1024 41.4557 29.823 41.7024 28.3244 41.7024Z" fill="#FBA902"/>
<path d="M56.761 41.3988V28.2661L51.153 38.2325H49.3822L43.7474 28.2661V41.3988H40.7422V22.9714H43.9621L50.2676 34.2355L56.5731 22.9714H59.793V41.3988H56.761Z" fill="#FBA902"/>
<path opacity="0.7" d="M80 1L80 41" stroke="#fcf8f1" stroke-width="0.5"/>
<path opacity="0.7" d="M100.085 26.6056C99.1963 26.6056 98.365 26.3691 97.591 25.8961C96.817 25.4088 96.2078 24.814 95.7635 24.1116V26.3906H95.0755V10.6956H95.8065V17.7476C96.3655 16.9593 97.0105 16.3143 97.7415 15.8126C98.4725 15.2966 99.3182 15.0386 100.278 15.0386C101.095 15.0386 101.819 15.2106 102.45 15.5546C103.095 15.8843 103.632 16.3286 104.062 16.8876C104.507 17.4466 104.844 18.0701 105.073 18.7581C105.317 19.4461 105.438 20.1413 105.438 20.8436C105.438 21.6033 105.302 22.3343 105.03 23.0366C104.758 23.7246 104.378 24.341 103.89 24.8856C103.403 25.416 102.83 25.8388 102.17 26.1541C101.525 26.4551 100.83 26.6056 100.085 26.6056ZM99.9775 25.9176C100.665 25.9176 101.296 25.7743 101.869 25.4876C102.443 25.201 102.937 24.8211 103.353 24.3481C103.783 23.8608 104.113 23.3161 104.342 22.7141C104.586 22.0978 104.707 21.4743 104.707 20.8436C104.707 19.955 104.514 19.1236 104.127 18.3496C103.74 17.5756 103.202 16.945 102.514 16.4576C101.841 15.9703 101.06 15.7266 100.171 15.7266C99.4973 15.7266 98.881 15.87 98.322 16.1566C97.763 16.4433 97.2685 16.8303 96.8385 17.3176C96.4228 17.7906 96.0788 18.2995 95.8065 18.8441V22.7356C95.8495 23.1656 96.0072 23.5741 96.2795 23.9611C96.5662 24.3481 96.9173 24.6921 97.333 24.9931C97.7487 25.2798 98.1858 25.5091 98.6445 25.6811C99.1175 25.8388 99.5618 25.9176 99.9775 25.9176ZM108.243 10.6956H108.995V24.4771C108.995 24.9358 109.11 25.2798 109.339 25.5091C109.583 25.7241 109.898 25.8316 110.285 25.8316C110.486 25.8316 110.701 25.8101 110.93 25.7671C111.159 25.7241 111.367 25.674 111.554 25.6166L111.726 26.2186C111.511 26.2903 111.238 26.3548 110.909 26.4121C110.579 26.4695 110.307 26.4981 110.092 26.4981C109.533 26.4981 109.081 26.3261 108.737 25.9821C108.407 25.6381 108.243 25.1866 108.243 24.6276V10.6956ZM118.048 26.6056C117.044 26.6056 116.134 26.3405 115.317 25.8101C114.5 25.2798 113.855 24.5775 113.382 23.7031C112.909 22.8288 112.673 21.8756 112.673 20.8436C112.673 20.0553 112.809 19.31 113.081 18.6076C113.368 17.9053 113.755 17.289 114.242 16.7586C114.744 16.2283 115.317 15.8126 115.962 15.5116C116.607 15.1963 117.302 15.0386 118.048 15.0386C118.793 15.0386 119.488 15.1963 120.133 15.5116C120.792 15.8126 121.366 16.2283 121.853 16.7586C122.355 17.289 122.742 17.9053 123.014 18.6076C123.301 19.31 123.444 20.0553 123.444 20.8436C123.444 21.6176 123.301 22.3558 123.014 23.0581C122.742 23.7461 122.362 24.3553 121.875 24.8856C121.387 25.416 120.814 25.8388 120.155 26.1541C119.51 26.4551 118.807 26.6056 118.048 26.6056ZM113.404 20.8651C113.404 21.7968 113.611 22.6496 114.027 23.4236C114.457 24.1833 115.016 24.7925 115.704 25.2511C116.406 25.6955 117.18 25.9176 118.026 25.9176C118.886 25.9176 119.667 25.6883 120.37 25.2296C121.072 24.771 121.631 24.1546 122.047 23.3806C122.477 22.5923 122.692 21.7395 122.692 20.8221C122.692 19.8905 122.477 19.0448 122.047 18.2851C121.631 17.5111 121.072 16.8948 120.37 16.4361C119.667 15.9631 118.893 15.7266 118.048 15.7266C117.216 15.7266 116.442 15.9631 115.726 16.4361C115.023 16.8948 114.457 17.5183 114.027 18.3066C113.611 19.0806 113.404 19.9335 113.404 20.8651ZM130.665 26.5841C129.891 26.5841 129.182 26.4265 128.537 26.1111C127.892 25.7815 127.326 25.3443 126.838 24.7996C126.365 24.2406 125.993 23.6243 125.72 22.9506C125.462 22.2626 125.333 21.5603 125.333 20.8436C125.333 20.084 125.455 19.3601 125.699 18.6721C125.957 17.9698 126.315 17.3463 126.774 16.8016C127.247 16.257 127.799 15.827 128.429 15.5116C129.06 15.1963 129.762 15.0386 130.536 15.0386C131.525 15.0386 132.385 15.3038 133.116 15.8341C133.847 16.3645 134.478 17.0023 135.008 17.7476V15.2106H135.696V26.7346C135.696 27.738 135.453 28.5693 134.965 29.2286C134.492 29.888 133.869 30.3753 133.095 30.6906C132.321 31.0203 131.489 31.1851 130.601 31.1851C129.296 31.1851 128.264 30.9415 127.505 30.4541C126.759 29.9811 126.165 29.3505 125.72 28.5621L126.279 28.2611C126.724 29.0638 127.333 29.6443 128.107 30.0026C128.895 30.361 129.726 30.5401 130.601 30.5401C131.403 30.5401 132.134 30.3968 132.794 30.1101C133.453 29.8235 133.976 29.4006 134.363 28.8416C134.765 28.2826 134.965 27.5803 134.965 26.7346V24.1116C134.507 24.8426 133.883 25.4375 133.095 25.8961C132.321 26.3548 131.511 26.5841 130.665 26.5841ZM130.794 25.9176C131.468 25.9176 132.113 25.76 132.729 25.4446C133.346 25.115 133.854 24.7065 134.256 24.2191C134.671 23.7175 134.908 23.2086 134.965 22.6926V18.8441C134.736 18.2421 134.392 17.7046 133.933 17.2316C133.489 16.7586 132.973 16.3931 132.385 16.1351C131.812 15.8628 131.217 15.7266 130.601 15.7266C129.884 15.7266 129.246 15.8771 128.687 16.1781C128.128 16.4791 127.655 16.8805 127.268 17.3821C126.881 17.8695 126.587 18.4141 126.387 19.0161C126.186 19.6181 126.086 20.2273 126.086 20.8436C126.086 21.7323 126.294 22.5636 126.709 23.3376C127.125 24.1116 127.691 24.7351 128.408 25.2081C129.124 25.6811 129.92 25.9176 130.794 25.9176Z" fill="#fcf8f1"/>



</svg>
