<svg width="33" height="35" fill="none" xmlns="http://www.w3.org/2000/svg"><path d="M20.507 18.18a9.54 9.54 0 005.469-8.637C25.976 4.273 21.734 0 16.5 0c-5.234 0-9.476 4.272-9.476 9.542a9.54 9.54 0 005.468 8.638C5.317 19.983 0 26.514 0 34.3a.696.696 0 00.696.7h31.608a.699.699 0 00.696-.7c0-7.786-5.317-14.317-12.493-16.12zm-9.724-2.881a8.143 8.143 0 01-2.368-5.757c0-2.25.904-4.28 2.368-5.757A8.029 8.029 0 0116.5 1.401a8.03 8.03 0 015.716 2.384 8.143 8.143 0 012.368 5.757c0 2.25-.904 4.281-2.368 5.757a8.03 8.03 0 01-5.716 2.384 8.028 8.028 0 01-5.717-2.384zm8.759 4.094l-1.985 2.998h-2.001l-1.694-3.07a15.07 15.07 0 015.68.072zM1.409 33.6a15.213 15.213 0 014.408-10.058 15.062 15.062 0 016.63-3.899l1.966 3.562L12.261 33.6H1.41zm12.274 0l2.03-9.807h1.673L19.82 33.6h-6.137zm7.571 0l-2.576-10.377 2.291-3.46a15.089 15.089 0 016.214 3.778A15.212 15.212 0 0131.591 33.6H21.254z" fill="#493326"/></svg>