<svg width="40" height="41" fill="none" xmlns="http://www.w3.org/2000/svg"><path d="M29.976 31.177a4.868 4.868 0 002.524.724 4.955 4.955 0 003.534-1.497 5.165 5.165 0 001.466-3.607 5.126 5.126 0 00-.188-1.306l-3.044 3.11a2.5 2.5 0 01-.812.572 2.455 2.455 0 01-1.933.017 2.499 2.499 0 01-.822-.557 2.556 2.556 0 01-.546-.838 2.598 2.598 0 01.578-2.803l3.046-3.11a4.843 4.843 0 00-1.279-.19 4.955 4.955 0 00-3.534 1.497 5.165 5.165 0 00-1.466 3.608c.005.909.25 1.8.709 2.578l-6.959 7.1 1.767 1.806 6.96-7.104z" fill="#493326"/><path fill-rule="evenodd" clip-rule="evenodd" d="M32.5 5.104h-5V2.552h-1.684v2.552H14.184V2.552H12.5v2.552h-5c-.663 0-1.299.269-1.768.748A2.58 2.58 0 005 7.656v25.521c0 .677.263 1.326.732 1.805a2.474 2.474 0 001.768.747h10V34.01H6.684V6.823H12.5v2.552h1.684V6.823h11.632v2.552H27.5V6.823h5.816v11.042H35V7.656a2.58 2.58 0 00-.732-1.804 2.475 2.475 0 00-1.768-.748z" fill="#493326"/></svg>