<svg width="22" height="22" fill="none" xmlns="http://www.w3.org/2000/svg"><path opacity=".7" d="M6.55.375C3.16.375.375 3.157.375 6.55v8.65c0 3.39 2.782 6.175 6.175 6.175h8.65c3.39 0 6.175-2.782 6.175-6.175V6.55c0-3.39-2.782-6.175-6.175-6.175H6.55zm0 1.91h8.65a4.26 4.26 0 014.266 4.265v8.65a4.26 4.26 0 01-4.266 4.266H6.55A4.259 4.259 0 012.285 15.2V6.55A4.26 4.26 0 016.55 2.285zm9.963 2.088a.86.86 0 00-.865.864.86.86 0 00.864.865.862.862 0 00.801-1.196.86.86 0 00-.8-.533zm-5.638.775c-3.15 0-5.727 2.577-5.727 5.727 0 3.15 2.577 5.727 5.727 5.727 3.15 0 5.727-2.577 5.727-5.727 0-3.15-2.577-5.727-5.727-5.727zm0 1.909a3.801 3.801 0 013.818 3.818 3.801 3.801 0 01-3.818 3.818 3.801 3.801 0 01-3.818-3.818 3.801 3.801 0 013.818-3.818z" fill="#493326"/></svg>