<svg width="184" height="49" viewBox="0 0 184 49" fill="none" xmlns="http://www.w3.org/2000/svg">
<g clip-path="url(#clip0)">
<path d="M4.30035 4.49316L9.55947 13.655L14.8722 4.49316H18.1726L11.062 16.3283V22.9206H8.05686V16.2763L1 4.49316H4.30035Z" fill="#FBA902"/>
<path d="M29.3244 23.2249C27.7892 23.2249 26.4825 22.9694 25.4042 22.4583C24.3258 21.947 23.4577 21.2509 22.7998 20.3696C22.1418 19.4707 21.6666 18.466 21.3742 17.3557C21.0818 16.2277 20.9355 15.0556 20.9355 13.8394V4.32178H24.006V13.8394C24.006 14.7031 24.0973 15.5402 24.2801 16.351C24.463 17.1441 24.7554 17.858 25.1573 18.4926C25.5594 19.127 26.0986 19.6293 26.7749 19.9995C27.4694 20.3696 28.3192 20.5547 29.3244 20.5547C30.348 20.5547 31.1978 20.3696 31.874 19.9995C32.5686 19.6118 33.1168 19.1005 33.5189 18.466C33.921 17.814 34.2042 17.0913 34.3688 16.2982C34.5515 15.5051 34.6428 14.6854 34.6428 13.8394V4.32178H37.7407V13.8394C37.7407 15.1261 37.5763 16.3334 37.2472 17.4615C36.9365 18.5894 36.4431 19.5853 35.7669 20.4489C35.1089 21.3125 34.2409 21.9912 33.1625 22.4846C32.1024 22.9782 30.823 23.2249 29.3244 23.2249Z" fill="#FBA902"/>
<path d="M57.7601 22.9206V9.78782L52.1521 19.7543H50.3812L44.7464 9.78782V22.9206H41.7412V4.49316H44.9611L51.2666 15.7573L57.5722 4.49316H60.7921V22.9206H57.7601Z" fill="#FBA902"/>
<path d="M4.30035 25.9712L9.55947 35.133L14.8722 25.9712H18.1726L11.062 37.8063V44.3987H8.05686V37.7543L1 25.9712H4.30035Z" fill="#FBA902"/>
<path d="M29.3244 44.7024C27.7892 44.7024 26.4825 44.4469 25.4042 43.9358C24.3258 43.4245 23.4577 42.7284 22.7998 41.8471C22.1418 40.9482 21.6666 39.9436 21.3742 38.8332C21.0818 37.7053 20.9355 36.5332 20.9355 35.3169V25.7993H24.006V35.3169C24.006 36.1806 24.0973 37.0178 24.2801 37.8285C24.463 38.6217 24.7554 39.3355 25.1573 39.9701C25.5594 40.6045 26.0986 41.1068 26.7749 41.477C27.4694 41.8471 28.3192 42.0322 29.3244 42.0322C30.348 42.0322 31.1978 41.8471 31.874 41.477C32.5686 41.0893 33.1168 40.5781 33.5189 39.9436C33.921 39.2915 34.2042 38.5688 34.3688 37.7757C34.5515 36.9826 34.6428 36.1629 34.6428 35.3169V25.7993H37.7407V35.3169C37.7407 36.6036 37.5763 37.8109 37.2472 38.939C36.9365 40.0669 36.4431 41.0628 35.7669 41.9264C35.1089 42.7901 34.2409 43.4687 33.1625 43.9621C32.1024 44.4557 30.823 44.7024 29.3244 44.7024Z" fill="#FBA902"/>
<path d="M57.7601 44.3986V31.2658L52.1521 41.2323H50.3812L44.7464 31.2658V44.3986H41.7412V25.9712H44.9611L51.2666 37.2353L57.5722 25.9712H60.7921V44.3986H57.7601Z" fill="#FBA902"/>
<path opacity="0.7" d="M81 4L81 44" stroke="#351C0E" stroke-width="0.5"/>
<path opacity="0.7" d="M99.751 30.215C98.8623 30.215 98.031 29.9785 97.257 29.5055C96.483 29.0182 95.8738 28.4233 95.4295 27.721V30H94.7415V14.305H95.4725V21.357C96.0315 20.5687 96.6765 19.9237 97.4075 19.422C98.1385 18.906 98.9842 18.648 99.9445 18.648C100.762 18.648 101.485 18.82 102.116 19.164C102.761 19.4937 103.299 19.938 103.729 20.497C104.173 21.056 104.51 21.6795 104.739 22.3675C104.983 23.0555 105.105 23.7507 105.105 24.453C105.105 25.2127 104.968 25.9437 104.696 26.646C104.424 27.334 104.044 27.9503 103.557 28.495C103.069 29.0253 102.496 29.4482 101.837 29.7635C101.192 30.0645 100.496 30.215 99.751 30.215ZM99.6435 29.527C100.332 29.527 100.962 29.3837 101.536 29.097C102.109 28.8103 102.603 28.4305 103.019 27.9575C103.449 27.4702 103.779 26.9255 104.008 26.3235C104.252 25.7072 104.374 25.0837 104.374 24.453C104.374 23.5643 104.18 22.733 103.793 21.959C103.406 21.185 102.869 20.5543 102.181 20.067C101.507 19.5797 100.726 19.336 99.837 19.336C99.1633 19.336 98.547 19.4793 97.988 19.766C97.429 20.0527 96.9345 20.4397 96.5045 20.927C96.0888 21.4 95.7448 21.9088 95.4725 22.4535V26.345C95.5155 26.775 95.6732 27.1835 95.9455 27.5705C96.2322 27.9575 96.5833 28.3015 96.999 28.6025C97.4147 28.8892 97.8518 29.1185 98.3105 29.2905C98.7835 29.4482 99.2278 29.527 99.6435 29.527ZM107.694 25.184V18.82H108.425V25.098C108.425 28.0507 109.421 29.527 111.413 29.527C112.087 29.527 112.732 29.3765 113.348 29.0755C113.979 28.7602 114.523 28.3302 114.982 27.7855C115.455 27.2408 115.806 26.6173 116.036 25.915V18.82H116.767V28.882C116.767 29.1973 116.896 29.355 117.154 29.355V30C116.953 30.0143 116.817 30.0072 116.745 29.9785C116.559 29.9355 116.401 29.8352 116.272 29.6775C116.157 29.5055 116.1 29.312 116.1 29.097L116.079 27.248C115.606 28.1653 114.932 28.8892 114.058 29.4195C113.198 29.9498 112.266 30.215 111.263 30.215C108.883 30.215 107.694 28.538 107.694 25.184ZM123.669 30.215C122.809 30.215 122.007 30.0645 121.261 29.7635C120.53 29.4625 119.885 29.011 119.326 28.409L119.713 27.893C120.301 28.4663 120.91 28.8892 121.541 29.1615C122.171 29.4338 122.874 29.57 123.648 29.57C124.68 29.57 125.518 29.3478 126.163 28.9035C126.823 28.4592 127.152 27.8428 127.152 27.0545C127.152 26.5385 127.002 26.1372 126.701 25.8505C126.414 25.5638 125.991 25.3345 125.432 25.1625C124.888 24.9762 124.221 24.7898 123.433 24.6035C122.659 24.4028 122.014 24.2093 121.498 24.023C120.996 23.8223 120.616 23.5572 120.358 23.2275C120.1 22.8978 119.971 22.4392 119.971 21.8515C119.971 21.1205 120.15 20.5185 120.509 20.0455C120.881 19.5725 121.369 19.2213 121.971 18.992C122.587 18.7627 123.261 18.648 123.992 18.648C124.88 18.648 125.647 18.7985 126.292 19.0995C126.937 19.3862 127.403 19.766 127.69 20.239L127.217 20.6475C126.916 20.2032 126.457 19.8663 125.841 19.637C125.239 19.4077 124.594 19.293 123.906 19.293C123.332 19.293 122.802 19.379 122.315 19.551C121.827 19.7087 121.433 19.9738 121.132 20.3465C120.831 20.7048 120.681 21.1707 120.681 21.744C120.681 22.217 120.781 22.5825 120.982 22.8405C121.197 23.0985 121.519 23.3063 121.949 23.464C122.379 23.6073 122.931 23.765 123.605 23.937C124.479 24.152 125.232 24.367 125.862 24.582C126.507 24.797 127.002 25.0908 127.346 25.4635C127.69 25.8218 127.862 26.3235 127.862 26.9685C127.862 27.9718 127.475 28.7673 126.701 29.355C125.941 29.9283 124.931 30.215 123.669 30.215ZM130.498 16.111V14.305H131.229V16.111H130.498ZM130.498 30V18.82H131.229V30H130.498ZM143.64 30H142.909V23.765C142.909 22.2313 142.687 21.1133 142.243 20.411C141.813 19.6943 141.125 19.336 140.179 19.336C139.505 19.336 138.846 19.5008 138.201 19.8305C137.556 20.1458 136.989 20.583 136.502 21.142C136.015 21.6867 135.671 22.3102 135.47 23.0125V30H134.739V18.82H135.449V21.615C135.75 21.0273 136.151 20.5113 136.653 20.067C137.169 19.6227 137.742 19.2787 138.373 19.035C139.003 18.777 139.648 18.648 140.308 18.648C141.483 18.648 142.329 19.0708 142.845 19.9165C143.375 20.7622 143.64 22.0163 143.64 23.679V30ZM151.645 30.215C150.885 30.215 150.176 30.0645 149.516 29.7635C148.857 29.4482 148.276 29.0253 147.775 28.495C147.287 27.9503 146.9 27.3268 146.614 26.6245C146.341 25.9078 146.205 25.1482 146.205 24.3455C146.205 23.2992 146.442 22.346 146.915 21.486C147.388 20.626 148.026 19.938 148.828 19.422C149.645 18.906 150.555 18.648 151.559 18.648C152.591 18.648 153.508 18.9132 154.311 19.4435C155.128 19.9595 155.773 20.6547 156.246 21.529C156.733 22.389 156.984 23.3493 156.998 24.41C156.998 24.4673 156.991 24.5247 156.977 24.582C156.977 24.6393 156.977 24.6967 156.977 24.754H146.958C147.029 25.657 147.28 26.474 147.71 27.205C148.155 27.936 148.721 28.5165 149.409 28.9465C150.097 29.3765 150.856 29.5915 151.688 29.5915C152.505 29.5915 153.272 29.3837 153.988 28.968C154.705 28.538 155.214 27.9933 155.515 27.334L156.181 27.506C155.966 28.022 155.629 28.4878 155.171 28.9035C154.712 29.3048 154.175 29.6273 153.558 29.871C152.956 30.1003 152.318 30.215 151.645 30.215ZM146.936 24.1305H156.267C156.21 23.1845 155.966 22.3532 155.536 21.6365C155.106 20.9055 154.547 20.3322 153.859 19.9165C153.186 19.5008 152.426 19.293 151.58 19.293C150.749 19.293 149.989 19.5008 149.301 19.9165C148.628 20.3322 148.076 20.9055 147.646 21.6365C147.23 22.3675 146.994 23.1988 146.936 24.1305ZM162.827 30.215C161.967 30.215 161.164 30.0645 160.419 29.7635C159.688 29.4625 159.043 29.011 158.484 28.409L158.871 27.893C159.459 28.4663 160.068 28.8892 160.698 29.1615C161.329 29.4338 162.031 29.57 162.805 29.57C163.837 29.57 164.676 29.3478 165.321 28.9035C165.98 28.4592 166.31 27.8428 166.31 27.0545C166.31 26.5385 166.159 26.1372 165.858 25.8505C165.572 25.5638 165.149 25.3345 164.59 25.1625C164.045 24.9762 163.379 24.7898 162.59 24.6035C161.816 24.4028 161.171 24.2093 160.655 24.023C160.154 23.8223 159.774 23.5572 159.516 23.2275C159.258 22.8978 159.129 22.4392 159.129 21.8515C159.129 21.1205 159.308 20.5185 159.666 20.0455C160.039 19.5725 160.526 19.2213 161.128 18.992C161.745 18.7627 162.418 18.648 163.149 18.648C164.038 18.648 164.805 18.7985 165.45 19.0995C166.095 19.3862 166.561 19.766 166.847 20.239L166.374 20.6475C166.073 20.2032 165.615 19.8663 164.998 19.637C164.396 19.4077 163.751 19.293 163.063 19.293C162.49 19.293 161.96 19.379 161.472 19.551C160.985 19.7087 160.591 19.9738 160.29 20.3465C159.989 20.7048 159.838 21.1707 159.838 21.744C159.838 22.217 159.939 22.5825 160.139 22.8405C160.354 23.0985 160.677 23.3063 161.107 23.464C161.537 23.6073 162.089 23.765 162.762 23.937C163.637 24.152 164.389 24.367 165.02 24.582C165.665 24.797 166.159 25.0908 166.503 25.4635C166.847 25.8218 167.019 26.3235 167.019 26.9685C167.019 27.9718 166.632 28.7673 165.858 29.355C165.099 29.9283 164.088 30.215 162.827 30.215ZM173.031 30.215C172.171 30.215 171.368 30.0645 170.623 29.7635C169.892 29.4625 169.247 29.011 168.688 28.409L169.075 27.893C169.663 28.4663 170.272 28.8892 170.903 29.1615C171.533 29.4338 172.236 29.57 173.01 29.57C174.042 29.57 174.88 29.3478 175.525 28.9035C176.184 28.4592 176.514 27.8428 176.514 27.0545C176.514 26.5385 176.364 26.1372 176.063 25.8505C175.776 25.5638 175.353 25.3345 174.794 25.1625C174.249 24.9762 173.583 24.7898 172.795 24.6035C172.021 24.4028 171.376 24.2093 170.86 24.023C170.358 23.8223 169.978 23.5572 169.72 23.2275C169.462 22.8978 169.333 22.4392 169.333 21.8515C169.333 21.1205 169.512 20.5185 169.871 20.0455C170.243 19.5725 170.731 19.2213 171.333 18.992C171.949 18.7627 172.623 18.648 173.354 18.648C174.242 18.648 175.009 18.7985 175.654 19.0995C176.299 19.3862 176.765 19.766 177.052 20.239L176.579 20.6475C176.278 20.2032 175.819 19.8663 175.203 19.637C174.601 19.4077 173.956 19.293 173.268 19.293C172.694 19.293 172.164 19.379 171.677 19.551C171.189 19.7087 170.795 19.9738 170.494 20.3465C170.193 20.7048 170.043 21.1707 170.043 21.744C170.043 22.217 170.143 22.5825 170.344 22.8405C170.559 23.0985 170.881 23.3063 171.311 23.464C171.741 23.6073 172.293 23.765 172.967 23.937C173.841 24.152 174.593 24.367 175.224 24.582C175.869 24.797 176.364 25.0908 176.708 25.4635C177.052 25.8218 177.224 26.3235 177.224 26.9685C177.224 27.9718 176.837 28.7673 176.063 29.355C175.303 29.9283 174.292 30.215 173.031 30.215Z" fill="#351C0E"/>
</g>
<defs>
<clipPath id="clip0">
<rect width="184" height="49" fill="white"/>
</clipPath>
</defs>
</svg>
