<svg width="50" height="50" fill="none" xmlns="http://www.w3.org/2000/svg"><g clip-path="url(#clip0)" fill="#FBA902"><path d="M49.347 28.35c-3.364-2.283-5.873.867-16.016 9.105l-9.357.002a.773.773 0 01-.773-.773c0-.728.318-1.011.773-1.011h5.783c1.972 0 4.18-1.285 4.18-3.57 0-2.427-2.208-3.57-4.18-3.57-3.625 0-6.234.26-7.92-.642a10.588 10.588 0 00-4.829-1.144c-2.948 0-5.588 1.176-7.397 3.03L0 39.24l10.708 10.71 3.57-3.57h18.074c1.799 0 3.535-.66 4.879-1.854l12.238-13.728c.748-.664.705-1.885-.122-2.447zm-13.374 14.9a5.556 5.556 0 01-3.621 1.34H13.539l-2.83 2.831-8.175-8.174 8.355-8.225c1.543-1.582 3.774-2.49 6.12-2.49 1.413 0 2.803.326 3.986.93 2.005 1.072 4.14.853 8.762.853.023 0 2.395.02 2.395 1.785 0 1.217-1.43 1.784-2.395 1.784h-5.783c-1.342 0-2.557.998-2.557 2.797a2.556 2.556 0 002.557 2.557l9.991-.001c10.662-8.662 12.074-10.573 14.115-9.568L35.973 43.25zm.164-28.91c-1.497 0-3.064.82-3.932 2.186-.612.875-1.026 2.467-.728 3.655a10.816 10.816 0 00-1.654 1.617c.164-3.812.412-6.2.7-7.974 2.077.055 4.067-1.77 5.091-3.746 2.097-3.752 1.125-7.6.812-10.027-1.638 1.596-8.793-.274-11.63 4.587-1.254 2.147-.884 4.94.43 6.673.638.843 1.957 1.646 2.659 1.983-.397 2.215-.732 5.324-.896 11.35a1.775 1.775 0 001.768 1.825h.023c.729-.01 1.351-.471 1.63-1.142.425-1.021 1.117-2.078 2.243-3.047 1.032 1.1 2.219 1.604 3.464 1.604 1.76 0 3.618-1.049 4.928-3.314 1.223-2.113 1.77-2.671 1.785-2.686-1.465-.658-3.94-3.544-6.693-3.544zm-8-2.936c-.588-.346-1.215-.809-1.49-1.17-.835-1.104-1.227-3.124-.31-4.696 1.358-2.33 4.262-2.611 6.823-2.861.64-.063 1.248-.122 1.813-.213.27 2.065.364 4.451-.942 6.793-.701 1.356-2.09 2.82-3.59 2.779-.038-2.904.524-5.456 1.698-7.421-2.018.692-3.41 3.573-4.001 6.789zm11.366 8.27c-.89 1.54-2.124 2.424-3.384 2.424-1.188 0-1.738-.589-2.484-1.387 1.303-1.12 2.866-1.947 4.624-2.32a10.566 10.566 0 00-5.058 1.232c-.107-.645.146-1.616.512-2.142.552-.867 1.578-1.36 2.426-1.36 1.385 0 3.062 1.378 4.169 2.22-.236.371-.503.81-.805 1.333z"/><path d="M25.106 16.876c-.796-1.567-2.304-2.51-4.075-2.51-1.296 0-2.73.506-4.13 1.643-1.895 1.538-2.607 1.866-2.625 1.874 1.25 1.249 2.675 5.44 5.79 5.903a4.753 4.753 0 003.657-.85c.772-.526 1.808-1.837 1.979-3.097.128-.937-.104-2.133-.596-2.963zm-2.447 4.628c-.616.458-1.431.676-2.33.517-1.513-.224-2.716-2.366-3.528-3.67.35-.261.755-.575 1.225-.957 1.001-.813 2.04-1.243 3.003-1.243 1.43 0 2.433.966 2.79 2.272-1.606-.43-3.323-.523-5.056-.132 1.874 0 3.621.507 5.152 1.358-.116.68-.783 1.532-1.256 1.855z"/></g><defs><clipPath id="clip0"><path fill="#fff" d="M0 0h50v50H0z"/></clipPath></defs></svg>