<svg width="18" height="18" viewBox="0 0 18 18" fill="none" xmlns="http://www.w3.org/2000/svg">
<path d="M8.99935 0.666626C7.35118 0.666626 5.74001 1.15537 4.3696 2.07105C2.99919 2.98672 1.93109 4.28821 1.30036 5.81093C0.669626 7.33365 0.504599 9.0092 0.826142 10.6257C1.14769 12.2422 1.94136 13.7271 3.1068 14.8925C4.27223 16.058 5.75709 16.8516 7.3736 17.1732C8.99011 17.4947 10.6657 17.3297 12.1884 16.699C13.7111 16.0682 15.0126 15.0001 15.9283 13.6297C16.8439 12.2593 17.3327 10.6481 17.3327 8.99996C17.3327 7.90561 17.1171 6.82198 16.6983 5.81093C16.2796 4.79988 15.6657 3.88122 14.8919 3.1074C14.1181 2.33358 13.1994 1.71975 12.1884 1.30096C11.1773 0.882174 10.0937 0.666626 8.99935 0.666626ZM8.99935 15.6666C7.68081 15.6666 6.39188 15.2756 5.29555 14.5431C4.19922 13.8105 3.34474 12.7694 2.84016 11.5512C2.33557 10.333 2.20355 8.99256 2.46078 7.69936C2.71802 6.40615 3.35296 5.21826 4.28531 4.28591C5.21766 3.35356 6.40554 2.71863 7.69875 2.46139C8.99196 2.20416 10.3324 2.33618 11.5506 2.84076C12.7687 3.34535 13.8099 4.19983 14.5425 5.29616C15.275 6.39249 15.666 7.68142 15.666 8.99996C15.666 10.7681 14.9636 12.4638 13.7134 13.714C12.4632 14.9642 10.7675 15.6666 8.99935 15.6666Z" fill="#FBA902"/>
<path d="M12.3327 8.16659H9.83268V5.66659C9.83268 5.44557 9.74488 5.23361 9.5886 5.07733C9.43232 4.92105 9.22036 4.83325 8.99935 4.83325C8.77834 4.83325 8.56637 4.92105 8.41009 5.07733C8.25381 5.23361 8.16602 5.44557 8.16602 5.66659V8.99992C8.16602 9.22093 8.25381 9.43289 8.41009 9.58918C8.56637 9.74546 8.77834 9.83325 8.99935 9.83325H12.3327C12.5537 9.83325 12.7657 9.74546 12.9219 9.58918C13.0782 9.43289 13.166 9.22093 13.166 8.99992C13.166 8.77891 13.0782 8.56694 12.9219 8.41066C12.7657 8.25438 12.5537 8.16659 12.3327 8.16659Z" fill="#FBA902"/>
</svg>
