<svg width="21" height="15" viewBox="0 0 21 15" fill="none" xmlns="http://www.w3.org/2000/svg">
<path d="M19.874 6.50427C19.234 5.39427 15.714 -0.175734 9.73397 0.00426608C4.20397 0.144266 1.00397 5.00427 0.133975 6.50427C0.0462063 6.65629 0 6.82873 0 7.00427C0 7.1798 0.0462063 7.35225 0.133975 7.50427C0.763975 8.59427 4.13398 14.0043 10.024 14.0043H10.274C15.804 13.8643 19.014 9.00427 19.874 7.50427C19.9617 7.35225 20.0079 7.1798 20.0079 7.00427C20.0079 6.82873 19.9617 6.65629 19.874 6.50427ZM10.224 12.0043C5.91398 12.1043 3.10397 8.41427 2.22397 7.00427C3.22397 5.39427 5.83397 2.10427 9.83397 2.00427C14.124 1.89427 16.944 5.59427 17.834 7.00427C16.804 8.61427 14.224 11.9043 10.224 12.0043Z" fill="#FBA902"/>
<path d="M10.0039 3.50427C9.31167 3.50427 8.63498 3.70954 8.05941 4.09413C7.48384 4.47871 7.03524 5.02534 6.77033 5.66488C6.50542 6.30442 6.43611 7.00816 6.57116 7.68709C6.70621 8.36602 7.03955 8.98966 7.52903 9.47915C8.01852 9.96863 8.64216 10.302 9.32109 10.437C10 10.5721 10.7038 10.5028 11.3433 10.2379C11.9828 9.97295 12.5295 9.52434 12.9141 8.94877C13.2986 8.3732 13.5039 7.69651 13.5039 7.00427C13.5039 6.07602 13.1352 5.18578 12.4788 4.5294C11.8224 3.87302 10.9322 3.50427 10.0039 3.50427ZM10.0039 8.50427C9.70724 8.50427 9.41723 8.4163 9.17055 8.25148C8.92388 8.08666 8.73162 7.85239 8.61809 7.5783C8.50456 7.30421 8.47485 7.00261 8.53273 6.71164C8.59061 6.42067 8.73347 6.15339 8.94325 5.94361C9.15303 5.73383 9.4203 5.59097 9.71127 5.53309C10.0022 5.47522 10.3038 5.50492 10.5779 5.61845C10.852 5.73199 11.0863 5.92424 11.2511 6.17092C11.4159 6.41759 11.5039 6.7076 11.5039 7.00427C11.5039 7.4021 11.3459 7.78363 11.0646 8.06493C10.7833 8.34624 10.4017 8.50427 10.0039 8.50427Z" fill="#FBA902"/>
</svg>
